<?xml version="1.0" standalone="no"?>
<!DOCTYPE svg PUBLIC "-//W3C//DTD SVG 1.1//EN" "http://www.w3.org/Graphics/SVG/1.1/DTD/svg11.dtd" >
<svg>
<metadata>
Created by FontForge 20110222 at Mon Sep 22 01:51:48 2014
 By Orthosie Webhosting
Copyright (c) 2011 by Kimberly Geswein. All rights reserved.
</metadata>
<defs>
<font id="fonthand" horiz-adv-x="1098" >
  <font-face 
    font-family="fonthand"
    font-weight="400"
    font-stretch="normal"
    units-per-em="2048"
    panose-1="2 0 0 0 0 0 0 0 0 0"
    ascent="1638"
    descent="-410"
    x-height="972"
    cap-height="1385"
    bbox="-386 -1314 2152 2068.29"
    underline-thickness="0"
    underline-position="0"
    unicode-range="U+0020-FB02"
  />
<missing-glyph horiz-adv-x="1024" 
 />
    <glyph glyph-name=".notdef" horiz-adv-x="1024" 
 />
    <glyph glyph-name=".null" horiz-adv-x="0" 
 />
    <glyph glyph-name="nonmarkingreturn" horiz-adv-x="682" 
 />
    <glyph glyph-name="space" unicode=" " horiz-adv-x="1024" 
 />
    <glyph glyph-name="exclam" unicode="!" horiz-adv-x="570" 
d="M244 1586q0 28 12 53t46 25q28 0 53 -19t29 -51l48 -398q20 -164 32 -273l19 -170q7 -61 10 -92t4 -40t1 -11q0 -36 -17 -66t-41 -43t-52 -6t-50 47q10 134 -3 265t-33 261l-39 259q-19 129 -19 259zM358 62q0 30 22 41t49 5t49 -27t24 -55q0 -58 -62 -58q-40 0 -61 30
t-21 64z" />
    <glyph glyph-name="quotedbl" unicode="&#x22;" horiz-adv-x="606" 
d="M148 1344q0 28 2 69t11 78t30 64t61 27q56 0 56 -56q0 -24 -9 -60t-16 -75t-10 -78t9 -69q-34 -46 -59 -47t-41 21t-25 58t-9 68zM352 1286q0 28 2 69t11 78t30 64t61 27q56 0 56 -56q0 -24 -9 -60t-16 -75t-10 -78t9 -69q-34 -46 -59 -47t-41 21t-25 58t-9 68z" />
    <glyph glyph-name="numbersign" unicode="#" horiz-adv-x="974" 
d="M126 756q-14 20 11 37t77 31t110 22q2 72 22 124t76 52q40 0 61 -24t21 -80q0 -14 -1 -28t-3 -30q20 2 40 2t42 2q4 64 26 110t76 46q40 0 61 -24t21 -82q0 -28 -6 -60q46 -8 74 -22t32 -40q2 -26 -22 -41t-82 -19q-8 -2 -22 -2q-4 -28 -9 -55t-9 -55q72 -4 123 -21
t55 -51q2 -26 -22 -41t-82 -19q-18 -2 -39 -2h-43q0 -58 14 -98q-40 -70 -66 -83t-41 11t-22 73t-9 103q-34 2 -69 2h-69q0 -62 14 -104q-42 -72 -67 -86t-38 9t-18 72t-5 103q-24 -2 -46 -6t-42 -8q-72 20 -88 38t5 35t68 30t101 21q-2 30 -4 64t-6 72q-64 -6 -110 -18
q-76 20 -90 40zM460 612q28 2 61 4l67 4q-2 26 -3 54t-3 58q-26 2 -51 3t-51 1q-6 -30 -11 -61t-9 -63z" />
    <glyph glyph-name="dollar" unicode="$" horiz-adv-x="1030" 
d="M32 670q0 32 16 53t38 29t46 -2t40 -42q-2 -22 -5 -62t-2 -88t6 -98t18 -91t37 -68t60 -27q14 148 21 293t3 301q-68 50 -98 104t-34 106t12 100t42 85t57 60t55 27v322q2 12 20 18t41 7t42 -5t21 -20l4 -302q6 0 19 -3t28 -7t28 -7t19 -1q20 10 34 46t25 78l22 82
q11 40 27 62t38 16t56 -56q0 -36 -11 -100t-11 -136q18 -20 55 -45t76 -55t68 -67t29 -79q0 -6 -3 -20t-9 -29t-15 -28t-19 -15q-26 24 -46 53t-44 59t-53 57t-73 45q-4 -18 -11 -53t-13 -73t-11 -73t-5 -55q70 -48 133 -122t107 -161t64 -179t5 -178t-72 -159t-165 -121
q-2 -4 1 -32t5 -63t1 -68t-7 -47q-16 -34 -49 -31t-61 55q-4 8 -3 31t3 50t3 54t-3 45l-168 26q-6 -16 -11 -47t-9 -65t-8 -63t-10 -39q-16 -30 -36 -44t-37 -11t-30 22t-15 59q0 8 3 34t7 56l8 58q4 28 4 42q-154 98 -237 256t-63 346zM328 1146q-6 -34 17 -63t76 -45
t141 -8l15 101q9 61 9 113q-76 14 -132 2t-88 -39t-38 -61zM432 504q0 -68 1 -127t4 -99t9 -48q20 -28 52 -41t64 -13v648q0 8 -16 15t-37 8t-39 -4t-24 -19q-4 -24 -7 -74t-5 -114t-2 -132zM698 732l22 -528q80 28 108 101t18 157t-51 160t-97 110z" />
    <glyph glyph-name="percent" unicode="%" horiz-adv-x="1260" 
d="M20 1202q-12 82 7 145t57 99t92 42t113 -24t121 -100t116 -186q58 24 93 67t55 93t30 104t21 99t27 77t48 40q26 6 41 -7t21 -36t7 -49t-1 -44q-40 -294 -66 -515l-45 -380l-32 -263q-13 -104 -29 -166t-37 -89t-53 -31q-46 0 -65 37t-15 79q44 218 75 430t31 432
q-52 -24 -86 -67t-70 -80t-86 -57t-136 2q-64 0 -108 34t-72 86t-41 113t-13 115zM172 1184q4 -52 26 -91t64 -62t106 -23q10 88 -10 142t-52 84t-68 42t-56 16q-14 -56 -10 -108zM790 274q2 72 7 147t29 135t73 98t137 34q66 -30 108 -74t66 -97t33 -113t9 -120
q0 -48 -19 -106t-53 -109t-80 -85t-102 -34q-64 0 -104 33t-63 81t-32 105t-9 105zM908 286q4 -94 40 -145t77 -55t75 43t38 149q12 76 -3 129t-42 82t-62 32t-65 -21t-47 -77t-11 -137z" />
    <glyph glyph-name="ampersand" unicode="&#x26;" horiz-adv-x="1076" 
d="M42 545q4 115 45 229t129 208q-20 96 -13 197t36 193t75 170t101 129t115 71t119 -4t112 -98t93 -210l-478 -456q44 -106 97 -200t111 -160t121 -93t131 5v410q0 26 24 39t53 10t54 -26t27 -69q6 -184 12 -318t11 -228t10 -154t8 -99t5 -62t2 -43q-18 -34 -44 -50t-50 2
t-41 75t-15 169q-110 -132 -217 -188t-203 -54t-176 54t-138 136t-89 192t-27 223zM223 552q-3 -82 7 -169t39 -158t77 -117t122 -50q56 0 97 12t76 35t69 58l78 81v4q0 2 1 3t1 3q-70 40 -149 99t-151 131t-129 155t-83 171q-22 -38 -37 -107t-18 -151zM416 1310
q-12 -54 4 -86q8 0 22 5t43 30t80 76t133 143q-10 80 -38 101t-64 4t-74 -63t-66 -101t-40 -109z" />
    <glyph glyph-name="quotesingle" unicode="'" horiz-adv-x="458" 
d="M154 1334q0 60 56 60q50 -14 78 -69t33 -120t-14 -124t-61 -81q-26 0 -39 9t-29 39q8 74 4 145t-28 141z" />
    <glyph glyph-name="parenleft" unicode="(" horiz-adv-x="532" 
d="M80 608q2 150 34 287t89 260t137 229t178 190q20 0 46 -8t26 -34q-80 -102 -152 -240t-123 -292t-76 -314t-14 -307t63 -272t158 -207q0 -32 -12 -51t-36 -19q-56 0 -102 45t-81 116t-61 159t-42 175t-24 162t-8 121z" />
    <glyph glyph-name="parenright" unicode=")" horiz-adv-x="524" 
d="M20 1612q0 26 22 34t38 8q82 -86 150 -198t117 -242t76 -274t27 -294q0 -46 -7 -120t-21 -157t-35 -168t-51 -153t-68 -111t-86 -43q-20 0 -30 19t-10 51q88 84 133 210t54 274t-13 310t-65 317t-103 294t-128 243z" />
    <glyph glyph-name="asterisk" unicode="*" horiz-adv-x="1146" 
d="M80 726q-4 24 18 66q46 0 108 6q52 4 126 13t168 25q-10 12 -39 53l-61 86l-60 86q-28 41 -38 53q-12 14 -26 38t-18 46t7 38t47 18q38 0 63 -25t44 -59l39 -69q20 -35 48 -57q22 30 23 67t-5 77t-14 80t-4 78q0 38 15 54t35 13t39 -22t25 -49q2 -16 10 -59t18 -92
t21 -96t21 -73q6 12 25 46t45 71t56 65t56 28q52 0 60 -28t-14 -68l-31 -45q-23 -33 -48 -73l-49 -79q-24 -39 -32 -65q10 0 36 2t55 5t55 4t36 1q44 -8 63 -27t17 -39t-23 -37t-57 -21q-30 0 -74 -7t-76 -7q-24 -20 -7 -54t46 -74t53 -82t16 -76q0 -30 -5 -45t-33 -15
q-46 0 -72 23t-41 56t-27 69t-30 60q-22 -18 -23 -49t8 -68t22 -75t18 -71t-4 -55t-45 -26q-26 0 -40 46t-24 104l-19 110q-9 52 -27 64q-16 -22 -38 -75t-49 -107t-58 -96t-65 -42q-48 26 -57 58t6 69t46 77l62 79q31 39 54 76t23 69q-80 0 -155 -10t-151 -10q-14 0 -36 2
t-38 12t-20 34z" />
    <glyph glyph-name="plus" unicode="+" 
d="M71 649q5 19 25 23l348 8v226q54 36 86 38t47 -18t18 -55t2 -73t-3 -73t4 -53q158 30 241 7t69 -117q-14 -2 -61 0t-102 4t-102 4t-61 2v-308q0 -14 -9 -23t-21 -14t-25 -7t-23 -2q-38 2 -53 23t-17 53t5 71t12 74t3 62t-20 39q-80 -2 -146 3t-130 13q-34 0 -55 16
t-29 37t-3 40z" />
    <glyph glyph-name="comma" unicode="," horiz-adv-x="468" 
d="M202 -202q30 52 38 104t4 105t-17 107l-25 108q0 30 18 43t41 13t46 -12t35 -34q4 -34 23 -96t24 -136t-16 -152t-99 -144q-34 0 -53 31t-19 63z" />
    <glyph glyph-name="hyphen" unicode="-" horiz-adv-x="642" 
d="M67 414q-5 30 23 112q196 18 398 24q46 0 73 -24t32 -53t-14 -55t-63 -30q-158 4 -254 -4t-143 -4t-52 34z" />
    <glyph glyph-name="period" unicode="." horiz-adv-x="582" 
d="M254 130q0 24 14 51t38 45t54 22t60 -16q36 -16 61 -63t27 -92t-27 -72t-101 -3q-22 0 -44 12t-40 31t-30 41t-12 44z" />
    <glyph glyph-name="slash" unicode="/" horiz-adv-x="720" 
d="M23 41q-11 33 31 83l570 1400q40 34 64 43t35 -3t9 -41t-14 -71l-518 -1378q-20 -50 -60 -67t-73 -8t-44 42z" />
    <glyph glyph-name="zero" unicode="0" horiz-adv-x="958" 
d="M55 441q-23 137 11 323q34 78 80 145t104 116t132 78t166 29q88 0 158 -49t119 -122t75 -156t26 -151q12 -152 -26 -269t-106 -195t-158 -118t-182 -38t-176 46t-142 134t-81 227zM201 582q-3 -74 10 -147t49 -130t99 -92t157 -33q86 2 145 57t90 137t33 178t-27 179
t-88 142t-149 67q0 -42 10 -78t16 -76q-6 -52 -26 -71t-46 -16t-54 24t-49 51t-31 64t0 62q-18 24 -42 5t-44 -66t-35 -115t-18 -142z" />
    <glyph glyph-name="one" unicode="1" horiz-adv-x="390" 
d="M96 1244q0 22 15 42t34 30t39 7t30 -27q24 -292 46 -592l46 -638q0 -42 -18 -67t-41 -30t-46 11t-33 58q-4 54 -9 161l-11 236q-6 129 -13 266t-14 252t-14 195t-11 96z" />
    <glyph glyph-name="two" unicode="2" horiz-adv-x="996" 
d="M49 157q5 27 29 56t55 55t63 46t56 30q160 162 248 292t122 231t21 173t-56 115t-107 57t-132 1t-132 -54t-106 -109q-26 0 -34 17t-8 55q18 90 76 150t135 87t163 21t159 -45t123 -113t56 -182q0 -102 -22 -187t-61 -164t-95 -162l-122 -183q30 -2 75 -7t96 -13t103 -22
t93 -35t67 -52t26 -73q0 -32 -6 -53t-42 -21q-54 0 -102 22t-96 48t-98 48t-106 22q-64 0 -110 -22t-86 -48l-77 -48q-37 -22 -81 -22q-54 16 -73 39t-14 50z" />
    <glyph glyph-name="three" unicode="3" horiz-adv-x="1018" 
d="M26 1167q6 23 30 46t58 35q44 10 103 25l121 30q62 15 118 26t94 11q96 0 150 -42t70 -107t-1 -143t-63 -146q96 -30 155 -85t88 -124t28 -147t-27 -154t-76 -144t-119 -116t-155 -71t-186 -11q-58 8 -115 50t-103 104t-77 136t-38 146t16 134t85 100q40 0 45 -15t5 -37
q-34 -64 -25 -138t45 -140t94 -115t122 -59q84 -26 149 4t109 88t65 134t16 140t-38 106t-97 34q-36 0 -66 -9t-60 -20t-62 -20t-70 -9q0 68 32 121t71 102t71 102t32 125q-26 40 -64 54t-82 12t-93 -16l-98 -28q-49 -14 -96 -24t-89 -4q-48 0 -63 18t-9 41z" />
    <glyph glyph-name="four" unicode="4" horiz-adv-x="836" 
d="M18 768q0 4 1 11t1 11q66 52 112 99t80 92t61 90l55 93q28 48 62 101t82 113q24 26 50 33t47 2t35 -18t14 -27q0 -64 -8 -135t-19 -143t-19 -143t-8 -135q34 0 49 2t27 3t27 3t49 2q32 0 60 -15t39 -35t2 -39t-49 -27q-16 -4 -44 -10l-58 -12q-30 -6 -58 -10t-44 -6
l-16 -580q0 -40 -20 -66t-44 -32t-46 10t-28 58v618h-344q-12 0 -21 11t-15 26t-9 30t-3 25zM228 812q8 -10 36 -14t60 -4t62 3t46 7l34 334z" />
    <glyph glyph-name="five" unicode="5" horiz-adv-x="884" 
d="M-24 1064q-10 52 16 81t74 44t112 21t132 10t134 11t118 27q26 0 45 -19t24 -43t-6 -47t-43 -31q-156 -24 -236 -31t-117 -10t-48 -7t-31 -22q8 -102 15 -165l11 -98q4 -35 7 -46t5 -11q144 60 255 62t190 -38t127 -111t67 -155t9 -173t-48 -164t-102 -128t-154 -64
t-205 28t-253 147q0 32 20 54t56 22q176 -84 294 -92t187 31t91 110t5 148t-68 143t-129 95t-180 6t-218 -125q-8 -8 -22 25t-30 88t-32 123l-31 130l-26 110q-11 48 -15 64z" />
    <glyph glyph-name="six" unicode="6" horiz-adv-x="996" 
d="M48 490q-2 108 13 223t40 221t55 200t56 160q26 42 54 57t49 7t30 -37t-3 -73q-20 -84 -55 -198t-65 -237t-45 -244t7 -218t91 -159t205 -68q-28 50 -42 124t-12 156t19 164t53 150t91 113t131 51q106 -10 160 -79t67 -168t-14 -212t-84 -212t-143 -168t-190 -79
q-132 -2 -221 39t-143 113t-78 169t-26 205zM546 432q0 -28 3 -72t13 -86t32 -72t62 -30q34 24 66 72t54 108t33 124t5 120t-32 97t-76 53q-44 0 -74 -37t-49 -88t-28 -104t-9 -85z" />
    <glyph glyph-name="seven" unicode="7" horiz-adv-x="960" 
d="M11 1137q5 25 23 43q78 6 164 14t175 15t179 12t176 5q36 0 69 -5t57 -19t38 -41t14 -69q-2 -44 -7 -132l-11 -197q-6 -109 -14 -230l-16 -232l-14 -199q-6 -88 -8 -134q-18 -32 -45 -51t-53 -21t-44 19t-20 71q32 222 50 384t27 288t11 226t0 196q-170 0 -332 -9
t-332 -9q-34 -12 -55 -2t-29 31t-3 46z" />
    <glyph glyph-name="eight" unicode="8" horiz-adv-x="908" 
d="M32 998q26 92 81 155t127 101t156 51t166 3t158 -42t134 -84q30 -48 27 -97t-28 -97t-63 -93t-79 -84l-77 -71q-36 -32 -54 -52v-10q52 -46 96 -116t74 -148t40 -160t-6 -153t-63 -125t-131 -78q-96 -8 -188 30t-162 103t-114 150t-46 172t45 167t157 136v10q0 22 -39 55
l-86 75q-47 42 -86 93t-39 109zM158 1034q0 -34 29 -80t69 -87t85 -70t79 -29q150 58 226 127t90 130t-25 105t-118 55t-192 -23t-243 -128zM214 284q14 -68 56 -124t108 -92t152 -34q72 -2 106 36t39 96t-14 128t-54 132t-78 107t-87 57q-96 -18 -150 -66t-73 -110t-5 -130
z" />
    <glyph glyph-name="nine" unicode="9" horiz-adv-x="818" 
d="M0 926q4 100 46 179t107 131t146 75t162 13t155 -55t126 -129q0 -28 1 -52t2 -64t1 -110t-2 -190t-8 -304t-16 -452q-4 -18 -22 -31t-41 -20t-45 -5t-34 14l-4 730q-54 -26 -120 -41t-131 -14t-125 19t-105 57t-71 100t-22 149zM138 902q18 -82 57 -112t103 -34
q92 -4 161 27t112 80t58 108t-3 111t-70 88t-142 42q-58 0 -108 -29t-87 -74t-59 -100t-22 -107z" />
    <glyph glyph-name="colon" unicode=":" horiz-adv-x="562" 
d="M216 424q0 36 13 49t47 13q36 0 59 -12t41 -58q8 -18 0 -31t-23 -22t-32 -14t-27 -5q-36 0 -57 21t-21 59zM224 766q0 36 13 49t47 13q36 0 59 -12t41 -58q8 -18 0 -31t-23 -22t-32 -14t-27 -5q-36 0 -57 21t-21 59z" />
    <glyph glyph-name="semicolon" unicode=";" horiz-adv-x="574" 
d="M282 -238q18 48 38 85t32 81t10 102t-30 146q-10 28 -5 46t22 22t43 -9t56 -47q36 -120 41 -192t-8 -121t-36 -86t-43 -85q-40 -36 -76 -19t-44 77zM300 598q0 32 19 57t53 25q36 0 54 -31t18 -65q0 -28 -20 -49t-50 -21q-34 0 -54 26t-20 58z" />
    <glyph glyph-name="less" unicode="&#x3c;" horiz-adv-x="680" 
d="M100 600q36 52 87 117l105 130l106 122q52 57 94 93l122 -82q-38 -32 -89 -87l-102 -114l-93 -111q-42 -52 -60 -78q74 -48 122 -72t85 -46t70 -57t75 -103q0 -18 -1 -39t-8 -38t-21 -28t-40 -13q-10 38 -49 69t-92 60l-111 58q-58 29 -105 61t-75 71t-20 87z" />
    <glyph glyph-name="equal" unicode="=" horiz-adv-x="1118" 
d="M264 417q4 21 18 40t36 23l460 -2q26 -2 44 -22t23 -45t-7 -47t-46 -24h-14q-18 0 -56 2t-85 4t-100 5t-100 5t-85 3t-56 3q-22 0 -29 17t-3 38zM271 647q3 21 15 39t32 20q174 0 270 -3t143 -6t57 -7t12 -6q2 -8 9 -22t10 -29t0 -27t-19 -14h-504q-16 0 -22 17t-3 38z
" />
    <glyph glyph-name="greater" unicode="&#x3e;" horiz-adv-x="770" 
d="M68 410q14 72 61 109t107 55t124 24t114 16q-32 44 -98 75l-133 60q-67 29 -117 63t-50 82q0 28 18 38t44 10h12l136 -65q64 -31 126 -65t127 -76t141 -98q20 -16 34 -40t14 -46t-16 -38t-54 -16q-110 16 -191 11t-142 -29t-106 -65t-81 -95q-40 16 -55 37t-15 53z" />
    <glyph glyph-name="question" unicode="?" horiz-adv-x="930" 
d="M68 960q8 88 74 161t159 123t199 72t196 8t147 -66t55 -150q2 -68 -30 -114t-79 -88t-100 -85t-91 -107t-54 -154t12 -224q-22 -70 -59 -74t-81 58q-46 122 -33 219t58 174t108 135t116 102t83 77t10 59q-46 66 -113 81t-141 -2t-145 -57t-127 -83t-89 -79t-27 -44
q-30 0 -39 15t-9 43zM482 54q0 34 11 55t45 21t59 -19t25 -53q0 -28 -20 -50t-50 -22q-28 0 -49 20t-21 48z" />
    <glyph glyph-name="at" unicode="@" horiz-adv-x="2014" 
d="M64 230q0 260 88 473t234 369t333 249t385 113q120 12 236 -38t218 -141t182 -211t129 -247t61 -251t-24 -220t-125 -155t-243 -59q-70 0 -104 -2t-56 0t-47 12t-79 34q-48 -56 -109 -63t-124 6t-123 33t-108 20q-28 0 -55 -8l-55 -17q-28 -9 -56 -16t-60 -7
q-108 0 -167 46t-78 117t-3 158t56 169t100 148t130 96t146 14t146 -98q40 -6 80 -11t75 -5t59 7t30 25q28 72 31 124l5 86q2 34 14 51t58 17q38 0 56 -45t23 -98t4 -98l-1 -45l230 26q20 6 31 -13t14 -43t-2 -46t-19 -22l-304 -16q8 -18 9 -56t0 -86t0 -98t10 -92t29 -69
t56 -27q148 -28 241 7t139 110t47 179t-32 217t-99 222t-155 193t-197 133t-228 39q-120 18 -240 -33t-228 -147t-197 -226t-148 -267t-79 -271t11 -240t119 -171t246 -65h618q14 0 22 -18t7 -39t-13 -39t-40 -18q-244 -20 -421 -11t-300 39t-199 77t-118 103t-57 117
t-15 119zM422 380q0 -60 18 -108t55 -67t93 -2t130 87q-2 20 7 61t19 92t19 105t9 98t-13 73t-47 29q-72 0 -126 -35t-90 -89t-55 -119t-19 -125zM874 309q12 -53 40 -85t65 -42t71 -1t57 37t23 72v368q-74 0 -116 -5t-66 -27t-38 -66t-32 -122q-16 -76 -4 -129z" />
    <glyph glyph-name="A" unicode="A" horiz-adv-x="1236" 
d="M-6 660q0 21 13 33q15 15 44 16h4q27 0 59 -13l148 -16l218 734q8 46 29 78t44 42q9 4 18 4q14 0 27 -10q22 -16 34 -66l540 -1430q0 -30 -12 -47t-32 -19t-46 13t-50 53l-140 394q-6 4 -46 13t-96 20l-120 23l-118 22q-54 10 -90 16l-36 6l-192 -584q-5 -1 -9 -1
q-12 0 -26 4q-19 5 -34 16t-24 26t-5 35q60 172 91 273t43 154t13 70t1 19l-214 48q-36 42 -36 74zM410 656l426 -82l-272 646z" />
    <glyph glyph-name="B" unicode="B" horiz-adv-x="1040" 
d="M66 1114v32q0 130 14 260q6 24 23 28t38 -2t42 -20t35 -28q96 56 187 65q23 2 46 2q64 0 118 -19q73 -26 123 -80t63 -126q4 -22 4 -46q0 -52 -20 -110q-29 -84 -111 -166q74 -10 141 -43t118 -86t81 -120t30 -143q0 -148 -70 -243t-175 -151t-231 -80t-236 -26
q-48 -56 -83 -69q-16 -6 -30 -6q-16 0 -30 8q-25 15 -40 50t-22 77t-7 82t6 64q5 103 5 204q0 51 -1 101q-4 151 -10 298t-8 293zM193 1004q1 -38 4 -75t8 -76t13 -87q36 12 83 37t96 59t95 76t79 90t50 100q12 35 12 73q0 18 -3 35q-22 40 -63 58t-91 19h-6q-47 0 -95 -15
q-51 -16 -93 -46t-67 -72q-23 -39 -23 -86q0 -46 1 -90zM218 218q54 -44 124 -61q50 -12 100 -12q21 0 41 2q71 7 139 36t121 77t85 114t32 148q-4 92 -44 147t-101 78q-54 20 -118 20h-17q-74 -3 -144 -30t-129 -72t-89 -103v-344z" />
    <glyph glyph-name="C" unicode="C" horiz-adv-x="960" 
d="M52 936q-4 37 -4 73q0 69 15 133q23 98 68 177t107 137t131 89q67 30 133 30h4q68 -1 126 -40t100 -118t56 -207q0 -48 -29 -80q-19 -21 -52 -21q-16 0 -35 5q-8 140 -47 216t-92 98q-25 10 -51 10q-30 0 -62 -13q-60 -25 -111 -87t-85 -156t-36 -206q-2 -50 -2 -97
q0 -203 35 -358q43 -191 133 -292t224 -101t306 118q40 -37 40 -72q0 -7 -1 -13q-9 -41 -55 -76t-120 -61t-156 -42q-30 -4 -58 -4q-74 0 -134 27q-82 37 -141 110t-97 173t-61 211t-34 224t-15 213z" />
    <glyph glyph-name="D" unicode="D" horiz-adv-x="1052" 
d="M55 1396v25q0 45 3 53q142 52 273 52q57 0 111 -10q180 -32 311 -160t203 -344q62 -185 62 -426q0 -40 -2 -82q1 -11 1 -22q0 -83 -41 -166q-46 -94 -123 -172t-174 -132t-191 -68q-28 -4 -55 -4q-63 0 -119 23q-80 33 -124 131q-52 396 -80 658t-41 419t-14 225z
M180 1352q18 -64 27 -163t16 -216t16 -241t27 -237t47 -204t76 -142t116 -52h2q68 0 165 67q96 56 151 145t75 194q12 66 12 134q0 41 -4 84q-12 113 -53 220t-107 197t-153 150t-191 80q-37 7 -76 7q-70 0 -146 -23z" />
    <glyph glyph-name="E" unicode="E" horiz-adv-x="870" 
d="M55 1110v29q0 85 15 146q18 71 66 111t146 50q108 10 218 15t224 9q54 -12 70 -27t4 -31t-45 -31t-75 -27t-87 -18q-34 -4 -62 -4h-19q-21 -1 -50 -1h-30h-12q-42 0 -81 -6q-45 -7 -81 -31t-44 -76q0 -2 1 -32t2 -76t3 -100t3 -104t2 -92t-1 -60q13 -1 29 -1q28 0 67 4
q60 7 129 18l140 22q71 11 129 17q34 12 56 2t31 -31t4 -45t-25 -42l-550 -90q-14 -44 -29 -102t-24 -120t-9 -125t17 -117t54 -93t101 -53q16 -2 33 -2q35 0 69 9q50 13 96 33l88 40q42 20 80 28q18 4 34 4q19 0 36 -5q32 -9 58 -47q-38 -56 -112 -98t-162 -63
q-80 -19 -164 -19h-16q-92 2 -166 35t-119 98q-40 57 -40 147q0 12 1 24q17 181 17 334v45q-3 171 -10 308t-10 241z" />
    <glyph glyph-name="F" unicode="F" horiz-adv-x="996" 
d="M49 1043q7 115 51 183q43 66 142 66h6h664q38 0 57 -16q20 -17 20 -42q0 -21 -13 -43q-14 -23 -40 -35q-47 -11 -98 -11q-15 0 -30 1q-68 4 -138 14l-139 19q-44 6 -85 6q-23 0 -45 -2q-61 -5 -113 -32t-86 -89q-4 -36 -6 -95q-1 -39 -1 -80v-42q1 -63 8 -122t23 -95
q52 -4 103 -4q25 0 50 1q75 3 149 9l149 12q75 6 151 8q36 14 59 -2t29 -43t-6 -55t-44 -40q-36 -8 -90 -8t-116 2t-125 2t-120 -7t-101 -25t-66 -54q0 -46 10 -116t22 -145t22 -145t10 -114q0 -42 -19 -64t-43 -24h-5q-22 0 -42 16q-23 18 -31 56q1 20 1 40q0 107 -18 235
q-21 153 -47 310t-46 306q-15 110 -15 202q0 32 2 62z" />
    <glyph glyph-name="G" unicode="G" horiz-adv-x="1302" 
d="M44 670q0 90 19 192t55 201t89 191t122 161t154 111t183 42q60 0 105 -30t77 -77t48 -104t16 -113q0 -14 -2 -39t-9 -49t-21 -40t-38 -10q-28 6 -38 35t-12 67t-4 81t-15 78t-42 59t-85 24q-82 0 -149 -40t-119 -105t-89 -148t-62 -171t-37 -174t-12 -154q0 -138 22 -242
t78 -175t153 -106t245 -35h10q94 0 173 36q83 38 145 98t101 133t51 141q5 30 5 57q0 34 -8 64q-15 53 -63 75q-75 33 -167 33q-53 0 -112 -11q-161 -30 -355 -142q-2 -2 -4 -2h-6q-10 0 -20 8t-18 19t-13 23t-5 20q38 42 108 81t155 68t178 43q57 9 110 9q34 0 67 -4
q84 -9 151 -45t103 -108q16 -80 16 -153t-16 -140q-32 -133 -117 -228t-215 -145q-116 -45 -258 -45q-17 0 -34 1q-154 0 -266 52t-185 144t-108 217t-35 271z" />
    <glyph glyph-name="H" unicode="H" horiz-adv-x="880" 
d="M75 1210v76q0 150 3 280q4 12 22 22q15 8 31 8h7q20 -2 36 -19t18 -57l30 -666h454l20 620q0 14 16 27t36 15t39 -11t23 -49q0 -38 1 -110t2 -157l2 -174q1 -89 1 -161q46 -31 46 -66q0 -6 -1 -12q-9 -42 -45 -82q0 -70 -1 -141q0 -36 -0.5 -71.5t0.5 -70.5q1 -71 6 -143
t19 -146q0 -28 -17 -60t-51 -32q-24 0 -41 43t-28 110t-16 147t-7 154t-2 131t2 79h-436q2 -76 5 -146t9 -137t15 -136l19 -143q0 -26 -19 -46t-43 -30t-47 -7t-31 27q-28 158 -44 350t-24 391t-9 393z" />
    <glyph glyph-name="I" unicode="I" horiz-adv-x="252" 
d="M45 1145v70q0 68 1 125q28 45 56.5 45t57.5 -45q-3 -78 -3 -155t3 -154q6 -153 17 -305t20 -306t9 -310q0 -34 -12 -52t-30 -21q-4 -1 -8 -1q-14 0 -30 9q-20 11 -36 37q-4 60 -9 152l-11 204q-6 112 -11 235t-9 243t-5 229z" />
    <glyph glyph-name="J" unicode="J" horiz-adv-x="1024" 
d="M17 378q-8 36 -8 71q0 52 17 104q28 87 120 157q12 0 22 -13t16 -30t9 -34t3 -27q-52 -56 -66 -117q-7 -29 -7 -59q0 -31 8 -62q15 -60 53 -115t91 -96t115 -66t126 -25q106 16 168 79t95 160t43 221t12 259l4 274q2 139 18 267q0 94 23 141q22 45 46 45h2q25 -2 41 -54
q9 -28 9 -70q0 -37 -7 -84q-14 -134 -15 -281t-4 -290t-20 -275t-62 -238t-130 -177t-225 -91q-19 -3 -38 -3q-52 0 -110 23q-80 32 -151 92t-125 143t-73 171z" />
    <glyph glyph-name="K" unicode="K" horiz-adv-x="1040" 
d="M30 574q0 19 8 30q10 14 25 27l29 26q14 13 22 35q0 80 -4 162t-8 176t-8 206t-4 250q-2 22 11 35t30 16q6 1 11 1q11 0 21 -4q15 -6 19 -22q20 -254 29 -402t17 -223t17 -94t29 -15l165 158q75 72 138 145t117 154t106 185q14 24 31 26t34 -9t31 -29t20 -34
q-58 -120 -128 -218t-152 -186t-173 -174l-189 -178l798 -504q6 -6 8 -24q1 -5 1 -10q0 -13 -4 -28q-5 -20 -17 -36t-36 -18l-812 494l62 -424q-4 -24 -19 -47t-33 -37t-36 -14t-30 22l-42 420q-44 56 -63 93q-21 42 -21 69z" />
    <glyph glyph-name="L" unicode="L" 
d="M56 1212v26q0 18 1 38t1 38v26q6 18 18 21t26 3q32 0 46 -22t24 -48q14 -284 21 -572q4 -155 4 -309q0 -132 -3 -263q20 -52 50 -69t88 -23q80 -8 173 -13t189 -8t191 -4h62q61 0 117 1q34 -12 42 -33t8 -49q0 -40 -28 -48t-62 -8q-10 0 -29 1t-23 1q-28 2 -85 5l-129 7
q-72 4 -152 9t-152 9t-129 8l-85 6q-54 20 -102 59t-58 103q3 93 3 186q0 186 -11 369q-16 275 -16 553z" />
    <glyph glyph-name="M" unicode="M" horiz-adv-x="1188" 
d="M32 140q2 44 7 138t12 213t16 250t16 250t12 212t7 137q6 22 26 23t36 1q48 0 92 -45t83 -113t72 -147t59 -148l43 -116q17 -47 25 -49l182 588q49 34 87 34q24 0 44 -13q51 -35 82 -131t50 -236t36 -296t37 -311t56 -279q0 -40 -20 -56q-19 -15 -41 -15h-3q-24 1 -47 20
t-29 53q-26 286 -47 478t-39 311t-34 175t-30 73t-27 5t-25 -30q-66 -178 -102 -325t-57 -246t-33 -140t-30 -5q-36 0 -61 49t-46 124t-41 167t-45 176t-58 150t-79 92l-78 -1084q-12 0 -27 -2t-30 2t-28 18t-23 48z" />
    <glyph glyph-name="N" unicode="N" horiz-adv-x="916" 
d="M40 1346q-7 19 -7 35q0 21 12 35q21 26 55 31q8 1 15 1q26 0 51 -13q32 -17 36 -59q56 -140 104 -309l99 -340q51 -171 111 -331t138 -282q0 -2 4 -3t6 -1q22 94 34 203t18 224t7 233t1 227v206q0 97 4 173q6 16 25 23t39 5t36 -15q14 -12 14 -30q0 -33 -9.5 -107
t-11.5 -115q-5 -123 -6 -257q0 -67 -0.5 -134.5t0.5 -136.5v-54q0 -107 -3 -206q-4 -123 -14 -222t-33 -158t-61 -67q-5 -1 -10 -1q-36 0 -88 51q-42 58 -79 143t-71 183l-67 202l-66 199q-33 95 -67 174t-70 127q0 -54 5 -130t13 -164l16 -180l16 -180q8 -88 13 -164
t5 -130q0 -28 -11 -49t-29 -32t-40 -8t-42 25q-8 20 -14 83t-13 154t-12 202t-11 227t-11 231t-11 211t-11 167t-9 103z" />
    <glyph glyph-name="O" unicode="O" 
d="M44 526q0 72 17 164t50 188t79 189t104 165t125 116t143 44q116 -14 206 -82t151 -170t93 -227t32 -254t-32 -251t-97 -218t-166 -154t-237 -60q-108 0 -195 48t-148 126t-93 177t-32 199zM172 540q-2 -22 -2 -43q0 -77 23 -146q29 -87 103 -151t206 -90q57 -14 106 -14
q55 0 100 18q84 34 135 110t70 184q15 86 15 177q0 24 -1 48q-5 117 -34 233t-76 207t-109 148t-134 57q-32 0 -80 -45t-101 -119t-102 -170t-80 -199t-39 -205z" />
    <glyph glyph-name="P" unicode="P" horiz-adv-x="928" 
d="M46 1292q8 48 31 67t48 15t46 -29t27 -67q26 54 59 87t72 52t85 26t102 9q122 -24 199 -77t117 -124t45 -155q1 -15 1 -30q0 -69 -19 -141q-23 -87 -70 -171t-112 -155t-145 -123t-168 -76q-10 4 -26 12t-31 18t-25 23t-10 27q92 8 181 70t158 149t108 189q31 81 31 155
q0 19 -2 37q-10 90 -78 155t-214 81q-80 0 -130 -53t-77 -129t-36 -158t-9 -140q-5 -80 -5 -159q0 -39 1 -78q4 -117 16 -224t28 -200t30 -165q-14 -20 -32 -37t-37 -25q-12 -5 -23 -5l-15 2q-19 5 -35 31z" />
    <glyph glyph-name="Q" unicode="Q" horiz-adv-x="1180" 
d="M44 630q0 140 39 283t117 259t192 189t264 73q110 -24 188 -94t131 -167t82 -211t40 -227q8 -78 8 -151q0 -33 -2 -66q-5 -104 -21 -180l138 -116q20 -12 31 -29q8 -12 8 -22q0 -5 -2 -10q-5 -15 -28 -25q-19 -8 -53 -8h-14l-132 118q-120 -172 -238 -255t-226 -92
q-15 -1 -30 -1q-91 0 -171 47q-93 55 -162 155t-111 237t-48 293zM158 666q-4 -40 -4 -78q0 -92 21 -175q29 -117 86 -203t136 -132q69 -40 145 -40q12 0 24 1q90 7 182 73t178 208l-214 138q-10 16 -6 37t16 37t31 24t41 0l198 -114q7 57 7 119.5t-7 130.5q-14 136 -60 261
t-126 220t-198 127q-112 0 -197 -61t-141 -155t-84 -205t-28 -213z" />
    <glyph glyph-name="R" unicode="R" 
d="M101 1107q1 97 4 152t7 76t4 23q8 62 32 84q20 19 41 19q4 0 8 -1q25 -4 46 -31t21 -63q110 50 232 56q20 1 39 1q100 0 186 -26q103 -31 171 -95q71 -67 71 -157q0 -85 -75 -189q-78 -108 -266 -228q96 -26 167 -83t120 -134t80 -164t48 -171t22 -157t5 -121
q5 -16 5 -28q0 -15 -8 -25q-15 -17 -41 -18h-4q-24 0 -49 12q-27 13 -39 35q2 28 2 57q0 82 -17 164q-23 111 -68 207t-111 169t-141 105q-49 21 -101 21q-28 0 -57 -6q-83 -17 -165 -101q0 -40 2 -102t5 -137l6 -155q3 -80 3 -154q-4 -16 -21 -23t-37 -5t-36 15t-20 37
q-28 298 -43 517t-22 373q-6 135 -6 226v25zM252 1064q0 -98 16 -194l32 -190q48 14 113 50t133 86t129 108t100 115t48 109q2 10 2 20q0 39 -30 69q-37 37 -128 54q-57 11 -143 11q-50 0 -110 -4q-118 -26 -151 -83q-20 -34 -20 -82q0 -31 9 -69z" />
    <glyph glyph-name="S" unicode="S" horiz-adv-x="802" 
d="M32 494q0 52 24 67q19 12 52 12q9 0 18 -1q-1 -11 -1 -22q0 -48 20 -111q25 -77 68 -152t100 -136t115 -86q32 -14 62 -14q25 0 50 10q54 21 92 113q2 23 2 45q0 75 -26 140q-34 85 -90 162t-125 150t-133 150t-112 160t-62 181q2 94 52 152t123 84q59 21 127 21
q16 0 32 -1q86 -6 161 -41t128 -97t61 -150q-4 -76 -35 -102q-10 -8 -21 -8q-22 0 -48 36q3 8 3 17q0 22 -17 51q-24 42 -68 82t-102 69t-113 32h-9q-49 0 -90 -29q-44 -32 -64 -116q6 -60 52 -131t110 -150l137 -164q73 -85 133 -175t97 -184q33 -85 33 -170v-18
q0 -102 -55 -172t-163 -70q-96 0 -189 53t-166 135t-118 182t-45 196z" />
    <glyph glyph-name="T" unicode="T" horiz-adv-x="1040" 
d="M-7 1322q0 16 8 32q9 18 33 34q116 26 253 48l285 45q148 23 306 45t318 48q24 -6 43 -21t23 -35q1 -4 1 -8q0 -16 -13 -33q-16 -21 -62 -35l-526 -98l42 -1362q0 -36 -17 -61t-40 -33q-9 -3 -18 -3q-15 0 -30 8q-25 13 -43 53l-42 1400q-50 0 -111 -13t-124 -28
t-125 -26q-52 -9 -98 -9h-16q-22 4 -34 17q-13 15 -13 35z" />
    <glyph glyph-name="U" unicode="U" horiz-adv-x="904" 
d="M32 1298v8q0 24 17 44t38 29t40 1t23 -40q44 -262 68 -449l40 -313q16 -126 28 -202t29 -118t44 -60t75 -28q98 46 156 127t87 182t33 215q1 30 1 61q0 83 -8 165q-11 112 -32 215t-41 181q-2 4 -2 6v6q0 32 12 52t29 25q5 2 11 2q12 0 26 -8q20 -11 38 -37
q18 -110 42 -234t38 -252q11 -100 11 -198q0 -28 -1 -56q-4 -126 -42 -237t-120 -202t-224 -151q-19 -3 -36 -3q-63 0 -112 45q-62 58 -104 163t-68 241t-41 274t-22 262t-10 207t-7 108t-14 -35q-2 2 -2 4z" />
    <glyph glyph-name="V" unicode="V" horiz-adv-x="1024" 
d="M-4 1308q0 38 32 45t62 -1l104 -236l104 -241l113 -255l129 -276q18 -43 36 -43q9 0 19 10q29 31 60 121t68 220t80 265t93 256t110 191q28 0 50 -28t22 -56q0 -2 -1 -3t-1 -3v-4q-4 -4 -10 -16t-21 -48t-41 -106t-66 -188l-96 -294l-134 -424q0 -18 -12 -40t-30 -39
t-40 -27q-16 -7 -31 -7l-13 1q-102 114 -187 265t-157 316t-132 332z" />
    <glyph glyph-name="W" unicode="W" horiz-adv-x="1344" 
d="M44 1030q0 54 39 62q10 2 19 2q29 0 58 -18q6 -100 36 -195t71 -191l86 -193q45 -97 81 -201q18 30 32 87t27 124t28 136t34 123t44 84q20 24 45 24q7 0 14 -2q34 0 67 -39t66 -100t68 -138l72 -153q37 -76 78 -145t89 -115q6 268 22 529t46 529q6 38 25 63t40 31
q6 2 11 2q14 0 26 -12q16 -16 16 -58q-10 -106 -17 -247l-14 -288q-7 -147 -16 -286t-24 -240t-39 -152q-15 -32 -35 -32q-12 0 -25 11q-12 -5 -23 -5l-49 20q-36 29 -72 85t-72 130l-73 149q-37 75 -77 142t-84 111q-44 -100 -70 -198t-39 -188t-19 -167t-10 -135
q-14 -7 -28 -7q-25 0 -50 22q-40 35 -79 105t-77 166t-72 200t-64 206l-53 182l-38 130q-15 50 -21 50z" />
    <glyph glyph-name="X" unicode="X" horiz-adv-x="728" 
d="M-2 1024q0 48 50 48q22 0 46 -24t48 -60t48 -79l46 -82q22 -39 39 -66t27 -33q10 20 30 67l47 108l55 129l55 128l47 107q20 47 30 67q28 50 53 63q12 6 21 6q11 0 20 -8q16 -15 22 -49q3 -15 3 -31q0 -21 -5 -45q-16 -40 -44 -96l-60 -121l-65 -133q-33 -68 -60 -133
t-44 -121t-15 -94l190 -482q5 -22 5 -38q0 -26 -12 -39q-19 -21 -59 -21q-18 0 -30 27t-22 70t-20 97t-24 107t-34 101t-50 80q-8 -10 -21 -63l-30 -127l-36 -159q-19 -85 -39 -159t-42 -126t-42 -60q-40 0 -56 31q-13 25 -13 52q0 7 1 13l178 670q4 10 -13 45t-43 84
l-58 106l-60 107q-28 50 -46 87t-18 49z" />
    <glyph glyph-name="Y" unicode="Y" horiz-adv-x="1130" 
d="M-8 1310l72 110l806 -822l-2 934q64 30 97 36q12 2 21 2q17 0 27 -7q15 -11 17 -33t2 -48l-66 -1244l204 46q22 4 38 -10q17 -15 17 -38q0 -21 -19 -47q-20 -27 -68 -49l-152 -52q-1 -42 -1 -87t1 -94q1 -39 1 -78q0 -58 -2 -117q-3 -98 -12 -190t-31 -167t-62 -126
t-102 -65q-62 -27 -135 -27q-14 0 -28 1q-89 6 -173 41t-154 96t-105 142q-28 66 -28 141q0 17 1 35q8 95 80 200t217 214t383 215l8 196zM298 -523q12 -83 95 -142t261 -73q10 -1 19 -1q53 0 89 30q42 35 66 96t33 143t11 173q1 36 1 73q0 55 -2 112q-3 94 -3 178
q-106 -20 -213 -83t-191 -148t-131 -180q-37 -76 -37 -144q0 -17 2 -34z" />
    <glyph glyph-name="Z" unicode="Z" horiz-adv-x="990" 
d="M70 92q6 72 48 159t104 180t136 188l145 183l132 165q61 77 95 134t36 89t-46 30q-180 0 -298 3t-188 8t-99 11t-29 12q0 40 28 60t66 20h566q90 -8 120 -45q21 -26 21 -62q0 -16 -4 -34q-13 -59 -62 -138t-115 -169l-143 -188q-77 -98 -148 -198t-126 -196t-79 -182
q52 -5 98 -5t85 5q79 10 154 21t161 15q13 1 27 1q77 0 179 -19q28 -17 28 -42q0 -18 -13 -35q-15 -19 -44 -32t-67 -13q-99 26 -175 26h-11q-80 -2 -156 -16t-156 -31t-184 -21q-50 0 -76 34q-16 21 -16 47q0 17 6 35z" />
    <glyph glyph-name="bracketleft" unicode="[" horiz-adv-x="728" 
d="M58 1236q-12 64 25 100t99 53t137 18t141 -6t110 -17t44 -14q0 -16 -7 -50t-25 -42q-16 0 -54 2t-81 5t-82 4t-53 -1q-80 -4 -117 -69t-46 -168t2 -233t27 -265l31 -265q15 -130 13 -230q20 -66 57 -84t84 -18t101 6t108 -12q38 0 68 -15t39 -33t-8 -33t-73 -17
q-118 -8 -204 -20t-146 1t-98 64t-60 171z" />
    <glyph glyph-name="backslash" unicode="\" horiz-adv-x="778" 
d="M35 1418q25 32 81 14l592 -1318q8 -30 8 -69t-11 -64t-33 -26t-58 45l-572 1310q-32 76 -7 108z" />
    <glyph glyph-name="bracketright" unicode="]" horiz-adv-x="778" 
d="M-57 1337q3 17 21 23q140 10 237 21t166 10t113 -17t77 -58t60 -114t59 -186l52 -974q8 -98 -38 -144t-118 -62t-156 -17t-150 -9h-12q-24 0 -37 15t-16 37t3 45t18 41q34 -2 96 -9t122 -2t105 29t45 84q0 32 -1 97t-3 147t-5 173t-7 174t-8 150t-10 101q-14 120 -32 197
t-45 121t-67 60t-99 15t-139 -14t-186 -27q-10 6 -22 23t-19 35t-4 35z" />
    <glyph glyph-name="asciicircum" unicode="^" horiz-adv-x="720" 
d="M78 704l32 53l43 68l46 67q23 32 39 50q24 38 55 66t61 36t58 -11t46 -75l188 -254q12 -40 -6 -59t-47 -20t-59 14t-44 43q-6 14 -23 38l-37 51q-20 27 -41 51t-37 38l-148 -214q-14 -22 -40 -27t-48 4t-35 30t-3 51z" />
    <glyph glyph-name="underscore" unicode="_" horiz-adv-x="884" 
d="M63 39q-15 29 3 83q32 2 89 5t125 5t143 4t144 3t127 2t92 3q46 0 64 -21t12 -47t-35 -49t-73 -27q-104 2 -201 -3l-180 -9q-83 -4 -148 -4t-106 13t-56 42z" />
    <glyph glyph-name="grave" unicode="`" horiz-adv-x="332" 
d="M28 1474q-18 36 5 64t65 26l55 -47q31 -27 60 -59t49 -68t20 -74q0 -32 -7 -53t-41 -21q-24 0 -54 29t-60 68t-55 78z" />
    <glyph glyph-name="a" unicode="a" horiz-adv-x="934" 
d="M32 398q-1 14 -1 28q0 77 28 153q33 89 91 164t136 129t164 74q44 10 89 10q42 0 85 -9q88 -19 166 -89q2 -114 4 -208t11 -186t27 -189t52 -217q14 -25 14 -48q0 -14 -5 -27q-13 -35 -38 -51q-16 -10 -34 -10q-10 0 -20 3q-29 9 -39 59l-64 370q-44 -70 -112 -130
t-143 -98t-150 -49q-21 -3 -41 -3q-51 0 -93 20q-59 28 -95 101q-32 66 -32 178v25zM170 420q10 -106 47 -151t88 -45t108 39t105 102t79 142t33 159q0 26 -5 56t-17 56t-31 43t-49 17q-76 0 -141 -39t-113 -101t-76 -136t-28 -142z" />
    <glyph glyph-name="b" unicode="b" horiz-adv-x="966" 
d="M46 1156q-9 16 -9 30.5t9 27.5q18 26 46 34q10 3 19 3q17 0 33 -10q18 -11 18 -41q0 -10 -2 -22l68 -550q130 102 237 134q70 21 130 21q32 0 60 -6q83 -17 142 -75t90 -136t35 -168q1 -12 1 -25q0 -77 -22 -146q-25 -81 -82 -146t-146 -93q-54 -17 -121 -17q-43 0 -90 7
q-122 18 -280 102zM266 263q8 -49 36 -88t80 -63q48 -22 122 -22h12q98 0 159 36t92 91t33 122v12q0 61 -19 116q-21 61 -62 108t-99 64q-25 7 -51 7q-36 0 -77 -13q-70 -23 -148 -101q-28 -30 -49 -75t-29 -95q-4 -25 -4 -50t4 -49z" />
    <glyph glyph-name="c" unicode="c" horiz-adv-x="880" 
d="M29 498q-2 26 -2 51q0 86 24 162q31 99 102 167t187 74q84 -14 150 -59t103 -98q39 -56 39 -106q0 -46 -46 -67q-36 26 -72 59l-70 62q-34 29 -67 47q-26 14 -51 14q-7 0 -14 -1q-32 -5 -65 -39t-65 -110q-26 -82 -26 -152q0 -21 2 -40q10 -86 52 -147t109 -97t145 -43
q19 -2 38 -2q60 0 124 17q84 22 162 76q54 -32 54 -64t-33 -60t-88 -51t-114 -38t-110 -21q-26 -3 -44.5 -3t-30.5 3q-120 10 -204 80t-132 171t-57 215z" />
    <glyph glyph-name="d" unicode="d" horiz-adv-x="984" 
d="M39 224q-2 20 -2 41q0 84 30 170q37 107 121 184t218 104q45 9 95 9q101 0 227 -36v548q6 96 31 123q15 16 30 16q10 0 21 -7q26 -18 42 -67q11 -33 11 -68q0 -18 -3 -37q6 -144 7 -298t6 -308t17 -304t38 -284q0 -28 -16 -59t-54 -31q-36 0 -56 25t-28 59t-9 68t3 54
q-166 -148 -297 -190q-77 -25 -142 -25q-44 0 -82 12q-93 29 -146 113t-62 188zM149 223q11 -77 57 -136t121 -71q15 -2 30 -2q65 0 146 40q101 50 225 192q0 6 -1 54t-2 106t-2 106t-1 54q-119 36 -211 36q-35 0 -67 -5q-114 -19 -183 -76t-96 -139q-19 -58 -19 -114
q0 -23 3 -45z" />
    <glyph glyph-name="e" unicode="e" horiz-adv-x="918" 
d="M10 565q6 119 59 217t157 160t264 64q36 0 77 -13t74 -37t55 -58t22 -76q0 -52 -32 -92t-84 -72t-115 -56t-126 -40t-117 -25t-88 -13q10 -120 58 -215t115 -158t143 -88q42 -14 81 -14q31 0 61 9q26 4 66 15t83 21t82 14t62 -4q25 -9 25 -36q0 -25 -30 -70
q-168 -84 -310 -86h-10q-136 0 -242 53q-110 55 -186 153t-113 213q-32 99 -32 201q0 16 1 33zM180 638q30 0 96 13t134 36t120 57t52 76q0 34 -31 52t-61 18q-46 0 -100 -22t-101 -58t-78 -81t-31 -91z" />
    <glyph glyph-name="f" unicode="f" horiz-adv-x="1000" 
d="M20 430q8 74 26 101t41 26t48 -23l49 -44q-22 -42 -22 -100t15 -120t43 -120t62 -102t71 -66q25 -15 48 -15q12 0 23 4q34 11 61 63t41 156q0 32 -1 111t-3 169t-4 170t-2 112q-58 0 -110 -19t-110 -19q-34 0 -51 15t-21 35t4 39t24 25l274 92q-36 123 -36 222q0 12 1 25
q5 109 41 189t98 133t137 79t156 28h13q74 0 143 -20q75 -22 137 -66t100 -110q18 -32 18 -58q0 -15 -6 -28q-13 -29 -60 -29q-10 0 -22 1q-42 110 -116 156q-68 42 -143 42h-13q-82 -4 -160 -50t-129 -121t-62 -171q-2 -17 -2 -34q0 -80 43 -164l388 24q10 1 20 1
q67 0 92 -37q10 -15 10 -33q0 -32 -32 -71l-486 -26q6 -180 11 -314q4 -96 4 -173q0 -31 -1 -59q-2 -98 -13 -165t-35 -114t-64 -77t-100 -56q-100 0 -181 59t-138 148t-88 191t-31 188z" />
    <glyph glyph-name="g" unicode="g" horiz-adv-x="1114" 
d="M32 724q0 118 65 214t163 163t214 103t218 36q44 0 89 -5t83 -22t62 -49t24 -86q-20 -92 -22 -190v-49q0 -74 4 -149q6 -100 13 -198q5 -76 5 -149v-41l194 90q40 0 59 -14q21 -16 21 -37q0 -16 -11 -32q-13 -19 -33 -31l-208 -118q-3 -56 -3 -118q0 -52 2 -109
q5 -125 8 -255q1 -49 1 -97q0 -80 -3 -159q-5 -126 -31 -229t-82 -174t-152 -91q-30 -2 -58 -2q-126 0 -208 37q-100 45 -146 126q-47 83 -47 197q0 107 32 223q33 119 92 238t132 221t152 178t153 106v428q-28 0 -82 -31l-123 -69q-69 -38 -150 -69t-165 -31q-50 0 -97 19
t-84 52t-59 78t-22 95zM168 734q0 -68 33 -103t109 -35q86 0 175 35t162 95t120 141t47 175q0 30 -14 46t-34 24t-43 10t-41 2q-76 0 -166 -29t-167 -80t-129 -123t-52 -158zM387 -732q5 -86 39 -145t101 -84q33 -12 75 -12q43 0 96 13q58 10 90 68t48 148t18 200q1 37 1 74
q0 74 -3 150q-4 114 -10 221t-6 191h-12q-76 -32 -144 -100t-123 -156t-96 -188t-60 -197q-15 -77 -15 -147q0 -18 1 -36z" />
    <glyph glyph-name="h" unicode="h" horiz-adv-x="990" 
d="M10 1432q-6 12 -6 27t7 32q13 33 35 52q18 16 38 16q4 0 8 -1q24 -4 34 -48l94 -802q20 78 49 148t72 123t102 81q46 22 104 22q17 0 35 -2q100 -20 167 -86t109 -161t61 -207t23 -223q1 -34 1 -67q0 -75 -6 -146q-9 -102 -21 -174q0 -12 -12 -29t-30 -20h-6
q-16 0 -33 13q-21 16 -41 70l11 128q7 82 8 179v22q0 87 -7 176q-8 101 -34 186t-74 142t-124 67q-78 -2 -128 -51t-79 -128t-42 -178t-17 -200t-4 -196t-2 -165q-6 -26 -27 -35t-45 -3t-43 27t-23 53q-8 150 -27 319t-43 344l-47 352q-23 177 -37 343z" />
    <glyph glyph-name="i" unicode="i" horiz-adv-x="352" 
d="M90 1244q0 42 25 58t65 16q36 0 60 -26t24 -60q0 -38 -13 -64t-59 -26t-74 28t-28 74zM136 912q4 14 16 24t27 12h6q12 0 27 -6q18 -8 34 -30q6 -212 9 -433q1 -95 1 -189q0 -126 -2 -250q-12 -16 -32 -29t-38 -17q-6 -1 -11 -1q-11 0 -20 6q-13 9 -9 37z" />
    <glyph glyph-name="j" unicode="j" horiz-adv-x="516" 
d="M-384 -733q8 127 45 257t103 240t160 191t214 111q0 110 -11 223l-23 227q-12 114 -22 229q-8 96 -8 191v38q6 20 26 30t41 10t38 -10t17 -30q6 -130 9 -226t12 -185t24 -183t45 -220q54 36 112 68l118 68q38 28 80 32q7 1 14 1q31 0 47 -16q11 -11 11 -30q0 -13 -5 -28
q-13 -39 -81 -95l-72 -34q-30 -14 -60 -32t-63 -41t-77 -61v-37q0 -148 14 -284l29 -287q14 -145 14 -253q0 -107 -28 -193q-29 -88 -99 -149t-200 -91q-49 -12 -93 -12q-59 0 -107 22q-84 38 -137 120t-74 197q-15 83 -15 173q0 34 2 69zM-241 -715q-2 -33 -2 -65
q0 -95 20 -176q27 -108 89 -172q51 -53 123 -53q16 0 33 3q102 14 152 76t65 154q9 58 9 123q0 39 -3 81q-9 112 -26 228l-33 227q-14 99 -14 179v20q-130 -40 -219 -140t-137 -226t-57 -259zM28 1376q0 40 31 55t81 15q44 0 74 -25t30 -57q0 -36 -17 -61t-71 -25
q-60 0 -94 27t-34 71z" />
    <glyph glyph-name="k" unicode="k" horiz-adv-x="1156" 
d="M32 1168q0 26 17 40t38 17q7 1 14 1q14 0 26 -4q19 -6 23 -22l58 -299l40 -200l25 -122l13 -63q4 -20 6 -23l2 -3l386 608q28 22 54 22t41 -15q16 -16 16 -46q0 -28 -23 -63q-42 -50 -99 -139t-112 -184t-98 -177t-57 -118q80 0 183 10t209 15q41 2 81 2q64 0 125 -5
q100 -8 178 -44q42 -57 42 -89q0 -24 -15 -36q-17 -13 -45 -15t-50 2q-80 34 -177 40q-48 3 -98.5 3t-103.5 -3q-105 -6 -212 -17t-207 -11l114 -352q9 -29 9 -48q0 -18 -8 -27q-14 -16 -36 -16q-5 0 -10 1q-29 4 -58 24t-37 44q-2 4 -21 67l-47 164q-28 101 -61 233
t-61 277t-46 292t-18 279z" />
    <glyph glyph-name="l" unicode="l" horiz-adv-x="926" 
d="M46 180q104 0 177 38t137 110q0 12 -13 78t-29 166t-31 223t-18 251q-1 26 -1 51q0 101 10 197q12 120 50 214t107 151t177 57q92 0 143 -56t71 -148q15 -68 15 -151q0 -29 -2 -59q-7 -118 -32 -244t-62 -249t-76 -224t-76 -170t-61 -87q38 -122 83 -197t90 -114t89 -52
t81 -14h18q26 0 47 2q28 3 42 -3q22 -10 45 -32t29 -46q1 -5 1 -10q0 -18 -17 -32q-22 -18 -90 -18q-116 0 -199 28t-143 83t-104 136t-82 189q-52 -54 -91 -89t-79 -56t-88 -30t-114 -9zM383 1012q1 -104 10 -203t20 -174t22 -120q10 -41 14 -41q40 0 106 142
q47 102 81 229t51 264q15 123 15 224v24q-2 111 -26 180q-22 63 -64 63h-8q-68 -10 -111 -64t-68 -136t-34 -183q-8 -91 -8 -184v-21z" />
    <glyph glyph-name="m" unicode="m" horiz-adv-x="1326" 
d="M68 1088q8 14 24 18t31 0t28 -16t19 -26l34 -228v16q0 64 28 109q32 51 84 79t115 31h15q55 0 105 -19q57 -22 101 -70t56 -124q20 62 64 117t100 91t118 48q21 4 42 4q39 0 75 -15q55 -23 97 -85t58 -174l12 -670q0 -40 -16 -74t-40 -49t-51 0t-47 75q14 194 18 332
q2 79 2 143q0 48 -1 89q-3 94 -14 150t-29 85t-41 39t-51 10q-66 -8 -113 -52t-78 -110t-47 -147t-21 -164q-2 -35 -2 -68q0 -47 4 -93q7 -78 23 -136q-20 -24 -41 -41t-42 -22t-39 7t-32 46q0 22 -3 70l-7 109q-4 61 -9 129t-9 129t-8 109t-6 70q-48 88 -90 114
q-23 14 -44 14q-18 0 -34 -10q-36 -22 -64 -81t-48 -140t-32 -174t-14 -182v-39q0 -67 5 -125q7 -75 25 -121q0 -28 -15 -53t-35 -37q-15 -9 -32 -9q-6 0 -11 1q-23 4 -37 32z" />
    <glyph glyph-name="n" unicode="n" horiz-adv-x="982" 
d="M44 790q0 34 12 47t46 13q28 0 39 -18t16 -45t10 -58t21 -57q10 40 42 101t76 119t96 99t100 41q29 6 55 6q75 0 134 -50q79 -68 132 -199t80 -311t31 -380q0 -36 -11 -61t-30 -34t-42 1t-47 46q-10 10 -13 53t-6 107t-7 142t-13 157t-27 152t-47 128t-72 84
q-34 23 -79 23q-13 0 -26 -2q-34 0 -66 -28t-59 -73t-49 -100t-37 -108t-23 -99t-8 -70q0 -48 8 -94t17 -92t17 -92t8 -92q0 -36 -15 -53t-35 -19h-5l-35 11q-20 13 -28 39l-67 311l-45 212l-28 133q-10 48 -14 71t-5 30t-1 9z" />
    <glyph glyph-name="o" unicode="o" horiz-adv-x="1030" 
d="M38 612q0 88 29 170t82 145t127 101t166 38q102 -4 191 -50t158 -119t114 -166t61 -191q8 -46 8 -92q0 -51 -10 -101q-18 -95 -75 -172t-158 -129t-251 -62q-112 0 -195 63t-138 157t-82 204t-27 204zM172 590q0 -72 13 -154t47 -152t95 -116t157 -46q152 16 238 81
t115 154q18 54 18 112q0 38 -8 78q-19 101 -76 187t-144 146t-193 68q-66 -2 -112 -28t-78 -73t-49 -112t-23 -145z" />
    <glyph glyph-name="p" unicode="p" horiz-adv-x="1110" 
d="M44 1064q12 52 36 63t50 -4t47 -45t27 -60q58 66 143 100t179 40q21 1 42 1q73 0 145 -16q93 -21 170 -69t130 -120t63 -166q0 -104 -50 -217t-131 -207t-185 -155t-210 -61q-16 -8 -36 -7t-35 11t-22 29t3 47q84 46 180 90t176 106t131 149q46 78 46 192q0 13 -1 27
q-8 72 -65 125t-136 81t-169 31h-17q-80 0 -147 -25q-74 -28 -121 -87q-40 -50 -40 -126q0 -13 1 -27q0 -4 1 -15t6 -46t17 -103l32 -186l52 -295l78 -429q5 -25 5 -43q0 -28 -13 -37t-28 -9q-12 0 -25 5q-31 12 -57 44q-21 26 -21 52q0 6 1 12l-105 561l-71 378l-44 232
q-16 83 -23 122t-8 47t-1 10z" />
    <glyph glyph-name="q" unicode="q" horiz-adv-x="1032" 
d="M12 642q0 96 41 187t110 163t159 115t186 43q76 0 124 -21t75 -61t36 -96t9 -124q0 -82 -6 -146t-14 -125t-14 -126t-6 -151l358 174q20 4 48 -7t43 -32q10 -14 10 -30q0 -8 -3 -17q-8 -26 -62 -52l-278 -132q74 -14 132 -69t98 -136t62 -180t24 -202v-22q0 -92 -15 -181
q-17 -100 -56 -182t-99 -139t-144 -75q-84 14 -138 78t-84 158t-43 211t-16 235q-2 71 -2 139q0 45 1 89q1 55 1 103.5t-1 90.5q-36 -6 -59 -15t-40 -18t-33 -15t-40 -8q-28 0 -54 5t-26 45q10 42 54 70t93 49l88 38q39 17 39 35l-4 132q-14 -8 -54 -26t-88 -37t-97 -34
t-81 -15q-56 0 -100 31t-74 77t-45 102t-15 104zM132 612q0 -70 48 -111t112 -41q78 0 138 33t101 87t62 122t21 138q0 26 -1 60t-10 64t-27 50t-52 20q-78 0 -149 -38t-125 -98t-86 -135t-32 -151zM684 122q1 -48 1 -108v-62q0 -49 -0.5 -99.5t0.5 -103.5q1 -105 7 -210
t21 -188t44 -137t75 -60q86 28 134 114t63 199q7 55 7 111q0 60 -8 123q-16 121 -61 220t-117 157q-58 47 -130 47q-18 0 -36 -3z" />
    <glyph glyph-name="r" unicode="r" horiz-adv-x="818" 
d="M32 974q-1 7 -1 13q0 22 11 39q14 22 36 31q12 5 24 5q11 0 22 -4q24 -8 36 -40v-220q14 60 69 116t136 83q51 17 110 17q35 0 72 -6q101 -16 207 -100q16 -16 20 -35q2 -8 2 -15q0 -11 -4 -21q-6 -17 -23 -28t-45 -11q-18 22 -55 41t-85 30q-38 9 -78 9q-11 0 -22 -1
q-52 -3 -101 -25t-89 -68t-62 -120q0 -48 12 -118l26 -145l26 -145q12 -70 12 -118q10 -26 -2 -46t-32 -29q-15 -7 -32 -7q-6 0 -12 1q-24 3 -38 25q-22 122 -46 239l-45 228q-21 111 -35 217t-14 208z" />
    <glyph glyph-name="s" unicode="s" horiz-adv-x="908" 
d="M22 309q24 85 91 149t171 91q45 12 94 12q65 0 138 -21q-90 48 -152 111t-93 129q-28 60 -28 117v11q3 62 42 109t115 74q62 22 151 22q20 0 41 -1q36 0 77 -15t76 -41t57 -60t22 -72q8 -22 -1 -40t-24 -28t-33 -8t-28 20l-23 50q-11 24 -28 42t-45 29t-76 11
q-98 -12 -142 -43t-49 -72q-1 -7 -1 -13q0 -35 22 -76q26 -48 69 -96t96 -92t101 -76l224 36q38 -4 57 -23t24 -41q2 -7 2 -14q0 -15 -8 -28q-11 -20 -33 -22l-204 -24q44 -58 53 -131q2 -15 2 -30q0 -57 -28 -111q-35 -68 -117 -123t-222 -79q-166 8 -259 66t-124 137
q-17 45 -17 91q0 36 10 73zM122 254q12 -88 69 -132t131 -53q21 -3 43 -3q53 0 107 16q76 22 126 66t61 105q2 10 2 20q0 52 -49 111q-24 32 -69 46q-42 13 -92 13h-7q-54 -1 -110 -16t-103 -40t-77 -59t-32 -74z" />
    <glyph glyph-name="t" unicode="t" horiz-adv-x="1048" 
d="M12 788q0 36 22 58t56 36t76 22t80 19t68 27t42 46q12 28 19 81t12 118t8 136t4 138t1 123t2 90q24 38 50 43q4 1 9 1q23 0 55 -22q0 -170 -7 -337q-2 -56 -2 -113q0 -115 9 -236l456 138q28 8 43 4t21 -15t7 -25t1 -28q0 -30 -31 -52t-80 -40t-110 -33l-122 -29
q-61 -14 -116 -28t-91 -30q-18 -98 -23 -225q-1 -37 -1 -75q0 -89 8 -178q12 -126 43 -233t88 -164q48 -48 115 -48q13 0 26 2q84 11 200 121q2 -2 18 -24t28 -43t15 -29t-21 16q-122 -140 -223 -169q-39 -11 -75 -11q-56 0 -104 28q-78 46 -133 154t-86 243t-39 282
q-2 45 -2 89q0 98 12 186q-34 0 -66 -6t-64 -13t-63 -13t-65 -6q-4 0 -15 -1t-23 1t-22 7t-10 17z" />
    <glyph glyph-name="u" unicode="u" horiz-adv-x="884" 
d="M35 698v11q0 72 12 139q13 72 49 124t110 52q0 -120 -17 -234t-17 -234q-3 -32 -3 -60q0 -80 21 -137q28 -77 77 -114t109 -37t115 35t96 102t51 163q4 -16 1 27t-5 111q-1 27 -1 56q0 43 2 91q3 79 20 137t54 78q11 6 25 6q31 0 76 -32q-4 -136 -13 -266t-13 -259
q-2 -52 -2 -103q0 -77 4 -155q6 -129 32 -263q0 -16 -11 -33t-31 -25q-13 -5 -29 -5q-8 0 -16 1q-25 4 -51 28l-36 336q-90 -124 -195 -164q-51 -20 -99 -20q-51 0 -98 22q-92 42 -153 165t-63 327q0 52 -1 130z" />
    <glyph glyph-name="v" unicode="v" horiz-adv-x="972" 
d="M14 1016q0 32 18 51t42 24t47 -2t33 -27l422 -772q16 22 32 76t31 124t30 148t27 148l21 124q9 54 15 76q-1 7 -1 14q0 47 24 91q27 51 60 73q18 12 34 12q14 0 28 -9q29 -19 33 -105q-44 -86 -77 -202t-60 -240t-49 -248t-44 -224q-14 -48 -37 -63q-15 -10 -32 -10
q-9 0 -18 3q-27 8 -56 32t-53 52t-39 56t-17 42q-16 30 -50 89l-76 133l-88 155l-87 155l-72 134q-31 60 -41 90z" />
    <glyph glyph-name="w" unicode="w" horiz-adv-x="1292" 
d="M44 986q0 26 15 40t35 16t39 -10t27 -36q42 -242 71 -389t49 -213q19 -61 35 -61h2q17 5 36 66t43 170t62 249q24 78 34 153t24 133t42 89q20 22 57 22q14 0 31 -3q40 -12 65 -56t43 -111t29 -151l23 -173q12 -89 26 -178t36 -167q32 -84 58 -93q4 -2 9 -2q21 0 38 37
q21 44 39 127t34 183l32 205q16 105 33 191t36 142t43 58q44 0 51 -24t9 -62q-8 -120 -19 -250t-30 -253t-46 -230t-64 -180t-88 -103q-26 -15 -54.5 -15t-60.5 15q-52 36 -86 97t-57 137t-38 162t-28 172t-27 165t-36 141h-10q-42 -338 -93 -533t-106 -272q-39 -55 -78 -55
l-32 9q-55 31 -103 142t-87 292t-63 407z" />
    <glyph glyph-name="x" unicode="x" horiz-adv-x="960" 
d="M-9 711q-1 7 -1 13q0 19 12 29q16 13 50 3t86 -58l65 -48l85 -60q44 -30 86 -53t72 -25q18 0 44 27t57 70l66 96l71 104q36 51 72 94t68 69h12q44 0 51 -28q5 -22 5 -48v-16q-36 -32 -86 -88t-96 -120t-81 -128t-39 -110q0 -38 24 -62t61 -43t79 -35t79 -35t61 -45
t24 -64q0 -26 -11 -41t-28 -22t-38 -8t-41 1l-44 51q-30 35 -67 70t-74 61t-67 26q-42 0 -70 -36t-49 -90t-35 -116t-31 -116t-37 -90t-50 -36q-28 0 -40 19t-15 44t1 53t8 46l93 215q33 77 48 115t18 47t3 11q-10 30 -59 71t-110 83l-118 81q-57 39 -83 63q-26 30 -31 59z
" />
    <glyph glyph-name="y" unicode="y" horiz-adv-x="1130" 
d="M-320 -712q0 154 60 277t154 217t207 161t219 110t192 62q78 17 118 17h8l-616 544q-6 30 2 51t26 30t41 6t47 -19q54 -46 125 -113l146 -134q75 -67 147 -125t130 -86l22 642q8 100 31 137q17 27 33 27l13 -4q23 -14 37 -69q8 -30 8 -68q0 -33 -6 -71v-686l386 108
q32 -24 53 -49q19 -23 19 -43q0 -24 -31 -45q-29 -19 -97 -33l-322 -100q-8 -110 -15 -234t-24 -247t-50 -238t-93 -210t-152 -160t-228 -89q-44 -10 -89 -10q-56 0 -114 15q-105 27 -191 88t-141 150t-55 191zM-164 -712q0 -76 44 -141t110 -109t145 -60q32 -6 62 -6
q45 0 87 14q102 30 172 90t115 139t69 174t36 197t16 206l8 204q-146 0 -299 -51t-279 -144t-206 -224t-80 -289z" />
    <glyph glyph-name="z" unicode="z" horiz-adv-x="1032" 
d="M36 960q-4 7 -4 15.5t4 17.5q8 19 40 39q112 44 234 65q95 16 181 16q25 0 49 -1q108 -6 192 -40t124 -96q8 -30 8 -61q0 -42 -15 -85q-25 -74 -76 -149t-121 -151l-143 -150l-141 -147q-68 -73 -114 -143l672 28h7q42 0 54 -23q6 -12 6 -24q0 -14 -8 -28
q-15 -27 -54 -45q-23 -11 -53 -11q-20 0 -42 5h-710q-18 -5 -31 -5q-12 0 -19 4q-16 9 -17 30t10 47t33 50q40 60 96 116l119 115l127 120q64 61 122 129t104 145t72 165q-48 60 -127 73q-45 7 -92 7q-37 0 -76 -4q-89 -10 -177 -29t-156 -21q-28 -4 -49 4t-29 22z" />
    <glyph glyph-name="braceleft" unicode="{" horiz-adv-x="680" 
d="M26 1188q0 76 51 141t127 121t164 103l160 87q32 20 64 29t59 5t44 -21t17 -45q0 -26 -38 -50t-95 -50l-124 -54q-67 -28 -124 -61t-95 -73t-38 -90q0 -64 44 -117t109 -99t139 -87t134 -83q2 -10 -6 -30t-22 -40t-33 -35t-37 -15q-124 14 -186 9t-84 -19t-15 -33t23 -33
q36 -50 48 -99t7 -97t-21 -96t-35 -97t-34 -99t-19 -102q-12 -44 12 -72t65 -47t93 -30t98 -22t79 -21t37 -28q0 -12 -13 -27t-33 -29t-43 -23t-43 -9q-88 24 -163 50t-132 61t-89 82t-32 115q2 56 20 110t40 106l43 104q21 52 26 103t-10 103t-63 106q-46 52 -38 77t46 37
t98 17t120 21q-38 38 -92 69t-102 69t-80 87t-28 121z" />
    <glyph glyph-name="bar" unicode="|" horiz-adv-x="1654" 
d="M114 950q0 110 59 181t145 87t182 -32t172 -176q44 86 127 143t184 83t206 18t191 -52t143 -126t59 -204q-10 -104 -57 -196t-118 -173t-159 -155l-177 -145l-175 -139q-86 -68 -152 -138q-44 86 -106 166l-130 160l-135 161q-67 81 -122 166t-93 177t-44 194zM228 936
q4 -128 61 -238t136 -209t168 -191t159 -188l226 158q118 80 220 172t177 202t99 248q-16 108 -78 171t-146 85t-179 1t-176 -81t-136 -160t-59 -238q-8 66 -41 141t-81 141t-103 112t-106 54t-89 -33t-52 -147z" />
    <glyph glyph-name="braceright" unicode="}" horiz-adv-x="696" 
d="M-8 1582q0 28 15 45t39 21t53 -5t57 -29l144 -87q78 -47 146 -103t114 -121t46 -141q4 -72 -25 -121t-72 -87t-91 -69t-82 -69q54 -16 107 -21t88 -17t41 -37t-34 -77q-44 -54 -57 -106t-8 -103t23 -103t38 -104t36 -106t18 -110q0 -68 -29 -115t-79 -82t-118 -61
t-146 -50q-18 0 -38 9t-38 23t-30 29t-12 27q4 16 33 27t71 22l88 22q46 11 83 30t58 47t11 72q-4 78 -31 152t-48 146t-20 144t51 148q14 14 20 33t-14 33t-76 19t-166 -9q-16 0 -33 15t-29 35t-20 40t-6 30q54 42 120 83t125 87t98 99t39 117q0 50 -34 90t-85 73t-111 61
l-111 54q-51 26 -85 50t-34 50z" />
    <glyph glyph-name="asciitilde" unicode="~" horiz-adv-x="844" 
d="M6 696q0 50 17 94t42 77t55 52t58 19q66 0 106 -28t73 -61t72 -60t103 -27q40 0 71 23t57 50l50 50q24 23 52 23q36 -38 36 -75t-22 -72t-60 -64t-79 -50t-76 -32t-51 -7q-48 12 -92 49l-87 74q-43 37 -85 65t-82 22q-24 0 -39 -27t-27 -60t-27 -60t-41 -27q-14 0 -19 16
t-5 36z" />
    <glyph glyph-name="uni00A0" unicode="&#xa0;" horiz-adv-x="1024" 
 />
    <glyph glyph-name="exclamdown" unicode="&#xa1;" horiz-adv-x="570" 
d="M165.783 78.1221q0 -24.4316 12.1855 -46.2451q12.1855 -21.8145 46.7129 -21.8145q28.4346 0 53.8223 16.5781q25.3867 16.5791 29.4492 44.501l48.7441 347.278q20.3105 143.1 32.4961 238.209l19.2949 148.334q7.1084 53.2266 10.1543 80.2754
q3.04688 27.0498 4.0625 34.9023q1.01562 7.85352 1.01562 9.59863q0 31.4121 -17.2637 57.5889t-41.6357 37.5195q-24.3721 11.3438 -52.8057 5.23633q-28.4346 -6.1084 -50.7754 -41.0107q10.1543 -116.923 -3.04688 -231.228q-13.2012 -114.306 -33.5117 -227.738
l-39.6045 -225.992q-19.2939 -112.561 -19.2939 -225.993zM281.55 1407.9q0 -26.1768 22.3408 -35.7744q22.3418 -9.59863 49.7598 -4.36328q27.4189 5.23535 49.7598 23.5586q22.3418 18.3242 24.3721 47.9912q0 50.6084 -62.9609 50.6084q-40.6201 0 -61.9453 -26.1768
q-21.3262 -26.1768 -21.3262 -55.8438z" />
    <glyph glyph-name="sterling" unicode="&#xa3;" horiz-adv-x="1442" 
d="M-112 610q-4 26 5 55t33 47l320 6q4 70 11 158t26 178t53 177t91 154t138 108t197 41q104 0 189 -52t145 -130t93 -171t33 -175q4 -20 -2 -49t-22 -53t-41 -36t-59 0q-4 52 -9 110t-16 113t-32 105t-57 89t-90 61t-132 22q-102 0 -167 -32t-104 -84t-57 -119t-23 -139
t-3 -142t2 -128q108 0 212 8t212 8q32 0 60 -18t40 -43t1 -50t-59 -39l-486 4q-12 -90 -22 -144l-19 -100q-9 -46 -18 -100t-19 -144q44 -40 121 -56t169 -15t193 14t197 32t179 39t139 36q26 0 48 -21t22 -55q-6 -30 -59 -57t-138 -50t-192 -40t-217 -26t-216 -8t-190 13
t-136 38t-54 68l68 570l-286 -28q-30 -6 -49 9t-23 41z" />
    <glyph glyph-name="dieresis" unicode="&#xa8;" horiz-adv-x="778" 
d="M96 1372q0 24 14 51t38 45t54 22t60 -16q36 -16 61 -63t27 -92t-27 -72t-101 -3q-22 0 -44 12t-40 31t-30 41t-12 44zM472 1372q0 24 14 51t38 45t54 22t60 -16q36 -16 61 -63t27 -92t-27 -72t-101 -3q-22 0 -44 12t-40 31t-30 41t-12 44z" />
    <glyph glyph-name="ordfeminine" unicode="&#xaa;" horiz-adv-x="934" 
d="M32 398q-1 14 -1 28q0 77 28 153q33 89 91 164t136 129t164 74q44 10 89 10q42 0 85 -9q88 -19 166 -89q2 -114 4 -208t11 -186t27 -189t52 -217q14 -25 14 -48q0 -14 -5 -27q-13 -35 -38 -51q-16 -10 -34 -10q-10 0 -20 3q-29 9 -39 59l-64 370q-44 -70 -112 -130
t-143 -98t-150 -49q-21 -3 -41 -3q-51 0 -93 20q-59 28 -95 101q-32 66 -32 178v25zM170 420q10 -106 47 -151t88 -45t108 39t105 102t79 142t33 159q0 26 -5 56t-17 56t-31 43t-49 17q-76 0 -141 -39t-113 -101t-76 -136t-28 -142z" />
    <glyph glyph-name="uni00AD" unicode="&#xad;" horiz-adv-x="642" 
d="M67 414q-5 30 23 112q196 18 398 24q46 0 73 -24t32 -53t-14 -55t-63 -30q-158 4 -254 -4t-143 -4t-52 34z" />
    <glyph glyph-name="macron" unicode="&#xaf;" horiz-adv-x="794" 
d="M100 1249q-26 29 2 111q48 4 119 9t146 9t146 7t123 5q46 0 73 -24t32 -53t-14 -55t-63 -30q-158 4 -275 -5t-190 -6t-99 32z" />
    <glyph glyph-name="acute" unicode="&#xb4;" horiz-adv-x="332" 
d="M38 1314q0 36 21 71t52 67t65 58t58 46q46 2 70 -25t4 -63q-14 -18 -40 -55t-57 -75t-63 -67t-58 -29q-38 0 -45 21t-7 51z" />
    <glyph glyph-name="cedilla" unicode="&#xb8;" horiz-adv-x="582" 
d="M64 -288q0 36 18 48t54 8q-8 -38 14 -80t61 -68t90 -25t99 51q20 58 12 85t-34 41t-63 26t-73 40t-65 81t-39 151q6 40 19 58t28 17t29 -18t24 -45q-4 -72 14 -109t47 -57t64 -31t67 -32t56 -59t30 -112q-4 -76 -43 -122t-94 -64t-116 -11t-110 36t-76 78t-13 113z" />
    <glyph glyph-name="ordmasculine" unicode="&#xba;" horiz-adv-x="1030" 
d="M38 612q0 88 29 170t82 145t127 101t166 38q102 -4 191 -50t158 -119t114 -166t61 -191q8 -46 8 -92q0 -51 -10 -101q-18 -95 -75 -172t-158 -129t-251 -62q-112 0 -195 63t-138 157t-82 204t-27 204zM172 590q0 -72 13 -154t47 -152t95 -116t157 -46q152 16 238 81
t115 154q18 54 18 112q0 38 -8 78q-19 101 -76 187t-144 146t-193 68q-66 -2 -112 -28t-78 -73t-49 -112t-23 -145z" />
    <glyph glyph-name="questiondown" unicode="&#xbf;" horiz-adv-x="930" 
d="M817.048 345.07q-6.93555 -82.7686 -64.1533 -151.429q-57.2188 -68.6602 -137.845 -115.688q-80.626 -47.0273 -172.521 -67.7188q-91.8955 -20.6924 -169.921 -7.52539q-78.0254 13.168 -127.44 62.0771q-49.416 48.9082 -47.6826 141.083
q-1.7334 63.957 26.0088 107.223t68.4883 82.7686q40.7471 39.5029 86.6943 79.9463q45.9482 40.4443 78.8926 100.64q32.9434 60.1953 46.8145 144.845t-10.4033 210.684q19.0732 65.8389 51.1494 69.6006q32.0771 3.7627 70.2227 -54.5518
q39.8789 -114.747 28.6094 -205.98q-11.2705 -91.2344 -50.2832 -163.656q-39.0117 -72.4229 -93.6299 -126.975q-54.6172 -54.5518 -100.565 -95.9365q-45.9473 -41.3838 -71.9561 -72.4219t-8.66895 -55.4932q39.8789 -62.0762 97.9639 -76.1846t122.239 1.88086
t125.707 53.6123q61.5527 37.6211 110.102 78.0654q48.5488 40.4434 77.1582 74.3037q28.6094 33.8594 23.4072 41.3838q26.0088 0 33.8105 -14.1084q7.80273 -14.1074 7.80273 -40.4434zM458.133 1197.21q0 -31.9785 -9.53613 -51.7305q-9.53613 -19.751 -39.0127 -19.751
q-29.4756 0 -51.1494 17.8701q-21.6729 17.8701 -21.6729 49.8496q0 26.335 17.3379 47.0273q17.3398 20.6924 43.3477 20.6924q24.2744 0 42.4805 -18.8115q18.2051 -18.8105 18.2051 -45.1465z" />
    <glyph glyph-name="Agrave" unicode="&#xc0;" horiz-adv-x="1236" 
d="M-6 660q0 21 13 33q15 15 44 16h4q27 0 59 -13l148 -16l218 734q8 46 29 78t44 42q9 4 18 4q14 0 27 -10q22 -16 34 -66l540 -1430q0 -30 -12 -47t-32 -19t-46 13t-50 53l-140 394q-6 4 -46 13t-96 20l-120 23l-118 22q-54 10 -90 16l-36 6l-192 -584q-5 -1 -9 -1
q-12 0 -26 4q-19 5 -34 16t-24 26t-5 35q60 172 91 273t43 154t13 70t1 19l-214 48q-36 42 -36 74zM410 656l426 -82l-272 646zM502 1846q-18 36 5 64t65 26l55 -47q31 -27 60 -59t49 -68t20 -74q0 -32 -7 -53t-41 -21q-24 0 -54 29t-60 68t-55 78z" />
    <glyph glyph-name="Aacute" unicode="&#xc1;" horiz-adv-x="1236" 
d="M-6 660q0 21 13 33q15 15 44 16h4q27 0 59 -13l148 -16l218 734q8 46 29 78t44 42q9 4 18 4q14 0 27 -10q22 -16 34 -66l540 -1430q0 -30 -12 -47t-32 -19t-46 13t-50 53l-140 394q-6 4 -46 13t-96 20l-120 23l-118 22q-54 10 -90 16l-36 6l-192 -584q-5 -1 -9 -1
q-12 0 -26 4q-19 5 -34 16t-24 26t-5 35q60 172 91 273t43 154t13 70t1 19l-214 48q-36 42 -36 74zM410 656l426 -82l-272 646zM470 1686q0 36 21 71t52 67t65 58t58 46q46 2 70 -25t4 -63q-14 -18 -40 -55t-57 -75t-63 -67t-58 -29q-38 0 -45 21t-7 51z" />
    <glyph glyph-name="Acircumflex" unicode="&#xc2;" horiz-adv-x="1236" 
d="M-6 660q0 21 13 33q15 15 44 16h4q27 0 59 -13l148 -16l218 734q8 46 29 78t44 42q9 4 18 4q14 0 27 -10q22 -16 34 -66l540 -1430q0 -30 -12 -47t-32 -19t-46 13t-50 53l-140 394q-6 4 -46 13t-96 20l-120 23l-118 22q-54 10 -90 16l-36 6l-192 -584q-5 -1 -9 -1
q-12 0 -26 4q-19 5 -34 16t-24 26t-5 35q60 172 91 273t43 154t13 70t1 19l-214 48q-36 42 -36 74zM410 656l426 -82l-272 646zM332 1698l32 53l43 68l46 67q23 32 39 50q24 38 55 66t61 36t58 -11t46 -75l188 -254q12 -40 -6 -59t-47 -20t-59 14t-44 43q-6 14 -23 38
l-37 51q-20 27 -41 51t-37 38l-148 -214q-14 -22 -40 -27t-48 4t-35 30t-3 51z" />
    <glyph glyph-name="Atilde" unicode="&#xc3;" horiz-adv-x="1236" 
d="M-6 660q0 21 13 33q15 15 44 16h4q27 0 59 -13l148 -16l218 734q8 46 29 78t44 42q9 4 18 4q14 0 27 -10q22 -16 34 -66l540 -1430q0 -30 -12 -47t-32 -19t-46 13t-50 53l-140 394q-6 4 -46 13t-96 20l-120 23l-118 22q-54 10 -90 16l-36 6l-192 -584q-5 -1 -9 -1
q-12 0 -26 4q-19 5 -34 16t-24 26t-5 35q60 172 91 273t43 154t13 70t1 19l-214 48q-36 42 -36 74zM410 656l426 -82l-272 646zM166 1694q0 50 17 94t42 77t55 52t58 19q66 0 106 -28t73 -61t72 -60t103 -27q40 0 71 23t57 50l50 50q24 23 52 23q36 -36 36 -74t-22 -73
t-60 -64t-79 -50t-76 -32t-51 -7q-48 12 -92 49l-87 74q-43 37 -85 65t-82 22q-24 0 -39 -27t-27 -60t-27 -60t-41 -27q-14 0 -19 16t-5 36z" />
    <glyph glyph-name="Adieresis" unicode="&#xc4;" horiz-adv-x="1236" 
d="M-6 660q0 21 13 33q15 15 44 16h4q27 0 59 -13l148 -16l218 734q8 46 29 78t44 42q9 4 18 4q14 0 27 -10q22 -16 34 -66l540 -1430q0 -30 -12 -47t-32 -19t-46 13t-50 53l-140 394q-6 4 -46 13t-96 20l-120 23l-118 22q-54 10 -90 16l-36 6l-192 -584q-5 -1 -9 -1
q-12 0 -26 4q-19 5 -34 16t-24 26t-5 35q60 172 91 273t43 154t13 70t1 19l-214 48q-36 42 -36 74zM410 656l426 -82l-272 646zM272 1744q0 24 14 51t38 45t54 22t60 -16q36 -16 61 -63t27 -92t-27 -72t-101 -3q-22 0 -44 12t-40 31t-30 41t-12 44zM648 1744q0 24 14 51
t38 45t54 22t60 -16q36 -16 61 -63t27 -92t-27 -72t-101 -3q-22 0 -44 12t-40 31t-30 41t-12 44z" />
    <glyph glyph-name="Aring" unicode="&#xc5;" horiz-adv-x="1236" 
d="M-6 660q0 21 13 33q15 15 44 16h4q27 0 59 -13l148 -16l218 734q8 46 29 78t44 42q9 4 18 4q14 0 27 -10q22 -16 34 -66l540 -1430q0 -30 -12 -47t-32 -19t-46 13t-50 53l-140 394q-6 4 -46 13t-96 20l-120 23l-118 22q-54 10 -90 16l-36 6l-192 -584q-5 -1 -9 -1
q-12 0 -26 4q-19 5 -34 16t-24 26t-5 35q60 172 91 273t43 154t13 70t1 19l-214 48q-36 42 -36 74zM410 656l426 -82l-272 646zM244 1890q6 62 42 100t87 56t108 21t105 -1q70 -8 144 -21t132 -42t91 -82t21 -139q-36 -64 -84 -101t-103 -56t-115 -23t-120 2q-48 4 -104 29
t-103 63t-77 88t-24 106zM376 1849q-8 -41 35 -80t145 -51q74 -18 129 -9t86 34t38 60t-15 66t-73 53t-135 24q-94 4 -148 -26t-62 -71z" />
    <glyph glyph-name="AE" unicode="&#xc6;" horiz-adv-x="2106" 
d="M96 22l262 506l-214 48q-32 38 -35 65t12 42t44 16t63 -13l174 -14l536 722q8 46 29 78t45 38t46 -18t34 -90q50 72 180 86q108 10 218 15t224 9q54 -12 70 -27t4 -31t-45 -31t-75 -27t-87 -18t-81 -4q-32 -2 -91 -2t-119 -10t-107 -35t-55 -77q0 -2 1 -32t2 -76t3 -100
t3 -104t2 -92t-1 -60q36 -4 108 5t155 21l165 25q82 13 140 19q34 12 56 2t31 -31t4 -45t-25 -42l-600 -126l16 -524q52 -6 113 4t123 23l123 27q61 14 114 17t96 -10t69 -51q-40 -54 -111 -91t-153 -58t-169 -26t-161 6t-129 36t-71 65l-16 418q-6 4 -47 10l-98 14
q-57 8 -122 15t-120 14t-92 10l-37 3l-306 -574q-16 -2 -35 3t-34 16t-24 26t-5 35zM548 646l442 -48l-32 598z" />
    <glyph glyph-name="Ccedilla" unicode="&#xc7;" horiz-adv-x="960" 
d="M52 936q-4 37 -4 73q0 69 15 133q23 98 68 177t107 137t131 89q67 30 133 30h4q68 -1 126 -40t100 -118t56 -207q0 -48 -29 -80q-19 -21 -52 -21q-16 0 -35 5q-8 140 -47 216t-92 98q-25 10 -51 10q-30 0 -62 -13q-60 -25 -111 -87t-85 -156t-36 -206q-2 -50 -2 -97
q0 -203 35 -358q43 -191 133 -292t224 -101t306 118q40 -37 40 -72q0 -7 -1 -13q-9 -41 -55 -76t-120 -61t-156 -42q-30 -4 -58 -4q-74 0 -134 27q-82 37 -141 110t-97 173t-61 211t-34 224t-15 213zM412 -360q0 36 18 48t54 8q-8 -38 14 -80t61 -68t90 -25t99 51
q20 58 12 85t-34 41t-63 26t-73 40t-65 81t-39 151q6 40 19 58t28 17t29 -18t24 -45q-4 -72 14 -109t47 -57t64 -31t67 -32t56 -59t30 -112q-4 -76 -43 -122t-94 -64t-116 -11t-110 36t-76 78t-13 113z" />
    <glyph glyph-name="Egrave" unicode="&#xc8;" horiz-adv-x="870" 
d="M55 1110v29q0 85 15 146q18 71 66 111t146 50q108 10 218 15t224 9q54 -12 70 -27t4 -31t-45 -31t-75 -27t-87 -18q-34 -4 -62 -4h-19q-21 -1 -50 -1h-30h-12q-42 0 -81 -6q-45 -7 -81 -31t-44 -76q0 -2 1 -32t2 -76t3 -100t3 -104t2 -92t-1 -60q13 -1 29 -1q28 0 67 4
q60 7 129 18l140 22q71 11 129 17q34 12 56 2t31 -31t4 -45t-25 -42l-550 -90q-14 -44 -29 -102t-24 -120t-9 -125t17 -117t54 -93t101 -53q16 -2 33 -2q35 0 69 9q50 13 96 33l88 40q42 20 80 28q18 4 34 4q19 0 36 -5q32 -9 58 -47q-38 -56 -112 -98t-162 -63
q-80 -19 -164 -19h-16q-92 2 -166 35t-119 98q-40 57 -40 147q0 12 1 24q17 181 17 334v45q-3 171 -10 308t-10 241zM320 1846q-18 36 5 64t65 26l55 -47q31 -27 60 -59t49 -68t20 -74q0 -32 -7 -53t-41 -21q-24 0 -54 29t-60 68t-55 78z" />
    <glyph glyph-name="Eacute" unicode="&#xc9;" horiz-adv-x="870" 
d="M55 1110v29q0 85 15 146q18 71 66 111t146 50q108 10 218 15t224 9q54 -12 70 -27t4 -31t-45 -31t-75 -27t-87 -18q-34 -4 -62 -4h-19q-21 -1 -50 -1h-30h-12q-42 0 -81 -6q-45 -7 -81 -31t-44 -76q0 -2 1 -32t2 -76t3 -100t3 -104t2 -92t-1 -60q13 -1 29 -1q28 0 67 4
q60 7 129 18l140 22q71 11 129 17q34 12 56 2t31 -31t4 -45t-25 -42l-550 -90q-14 -44 -29 -102t-24 -120t-9 -125t17 -117t54 -93t101 -53q16 -2 33 -2q35 0 69 9q50 13 96 33l88 40q42 20 80 28q18 4 34 4q19 0 36 -5q32 -9 58 -47q-38 -56 -112 -98t-162 -63
q-80 -19 -164 -19h-16q-92 2 -166 35t-119 98q-40 57 -40 147q0 12 1 24q17 181 17 334v45q-3 171 -10 308t-10 241zM286 1686q0 36 21 71t52 67t65 58t58 46q46 2 70 -25t4 -63q-14 -18 -40 -55t-57 -75t-63 -67t-58 -29q-38 0 -45 21t-7 51z" />
    <glyph glyph-name="Ecircumflex" unicode="&#xca;" horiz-adv-x="870" 
d="M55 1110v29q0 85 15 146q18 71 66 111t146 50q108 10 218 15t224 9q54 -12 70 -27t4 -31t-45 -31t-75 -27t-87 -18q-34 -4 -62 -4h-19q-21 -1 -50 -1h-30h-12q-42 0 -81 -6q-45 -7 -81 -31t-44 -76q0 -2 1 -32t2 -76t3 -100t3 -104t2 -92t-1 -60q13 -1 29 -1q28 0 67 4
q60 7 129 18l140 22q71 11 129 17q34 12 56 2t31 -31t4 -45t-25 -42l-550 -90q-14 -44 -29 -102t-24 -120t-9 -125t17 -117t54 -93t101 -53q16 -2 33 -2q35 0 69 9q50 13 96 33l88 40q42 20 80 28q18 4 34 4q19 0 36 -5q32 -9 58 -47q-38 -56 -112 -98t-162 -63
q-80 -19 -164 -19h-16q-92 2 -166 35t-119 98q-40 57 -40 147q0 12 1 24q17 181 17 334v45q-3 171 -10 308t-10 241zM148 1698l32 53l43 68l46 67q23 32 39 50q24 38 55 66t61 36t58 -11t46 -75l188 -254q12 -40 -6 -59t-47 -20t-59 14t-44 43q-6 14 -23 38l-37 51
q-20 27 -41 51t-37 38l-148 -214q-14 -22 -40 -27t-48 4t-35 30t-3 51z" />
    <glyph glyph-name="Edieresis" unicode="&#xcb;" horiz-adv-x="870" 
d="M55 1110v29q0 85 15 146q18 71 66 111t146 50q108 10 218 15t224 9q54 -12 70 -27t4 -31t-45 -31t-75 -27t-87 -18q-34 -4 -62 -4h-19q-21 -1 -50 -1h-30h-12q-42 0 -81 -6q-45 -7 -81 -31t-44 -76q0 -2 1 -32t2 -76t3 -100t3 -104t2 -92t-1 -60q13 -1 29 -1q28 0 67 4
q60 7 129 18l140 22q71 11 129 17q34 12 56 2t31 -31t4 -45t-25 -42l-550 -90q-14 -44 -29 -102t-24 -120t-9 -125t17 -117t54 -93t101 -53q16 -2 33 -2q35 0 69 9q50 13 96 33l88 40q42 20 80 28q18 4 34 4q19 0 36 -5q32 -9 58 -47q-38 -56 -112 -98t-162 -63
q-80 -19 -164 -19h-16q-92 2 -166 35t-119 98q-40 57 -40 147q0 12 1 24q17 181 17 334v45q-3 171 -10 308t-10 241zM92 1744q0 24 14 51t38 45t54 22t60 -16q36 -16 61 -63t27 -92t-27 -72t-101 -3q-22 0 -44 12t-40 31t-30 41t-12 44zM468 1744q0 24 14 51t38 45t54 22
t60 -16q36 -16 61 -63t27 -92t-27 -72t-101 -3q-22 0 -44 12t-40 31t-30 41t-12 44z" />
    <glyph glyph-name="Igrave" unicode="&#xcc;" horiz-adv-x="252" 
d="M45 1145v70q0 68 1 125q28 45 56.5 45t57.5 -45q-3 -78 -3 -155t3 -154q6 -153 17 -305t20 -306t9 -310q0 -34 -12 -52t-30 -21q-4 -1 -8 -1q-14 0 -30 9q-20 11 -36 37q-4 60 -9 152l-11 204q-6 112 -11 235t-9 243t-5 229zM14 1846q-18 36 5 64t65 26l55 -47
q31 -27 60 -59t49 -68t20 -74q0 -32 -7 -53t-41 -21q-24 0 -54 29t-60 68t-55 78z" />
    <glyph glyph-name="Iacute" unicode="&#xcd;" horiz-adv-x="252" 
d="M45 1145v70q0 68 1 125q28 45 56.5 45t57.5 -45q-3 -78 -3 -155t3 -154q6 -153 17 -305t20 -306t9 -310q0 -34 -12 -52t-30 -21q-4 -1 -8 -1q-14 0 -30 9q-20 11 -36 37q-4 60 -9 152l-11 204q-6 112 -11 235t-9 243t-5 229zM-20 1686q0 36 21 71t52 67t65 58t58 46
q46 2 70 -25t4 -63q-14 -18 -40 -55t-57 -75t-63 -67t-58 -29q-38 0 -45 21t-7 51z" />
    <glyph glyph-name="Icircumflex" unicode="&#xce;" horiz-adv-x="252" 
d="M45 1145v70q0 68 1 125q28 45 56.5 45t57.5 -45q-3 -78 -3 -155t3 -154q6 -153 17 -305t20 -306t9 -310q0 -34 -12 -52t-30 -21q-4 -1 -8 -1q-14 0 -30 9q-20 11 -36 37q-4 60 -9 152l-11 204q-6 112 -11 235t-9 243t-5 229zM-158 1698l32 53l43 68l46 67q23 32 39 50
q24 38 55 66t61 36t58 -11t46 -75l188 -254q12 -40 -6 -59t-47 -20t-59 14t-44 43q-6 14 -23 38l-37 51q-20 27 -41 51t-37 38l-148 -214q-14 -22 -40 -27t-48 4t-35 30t-3 51z" />
    <glyph glyph-name="Idieresis" unicode="&#xcf;" horiz-adv-x="252" 
d="M45 1145v70q0 68 1 125q28 45 56.5 45t57.5 -45q-3 -78 -3 -155t3 -154q6 -153 17 -305t20 -306t9 -310q0 -34 -12 -52t-30 -21q-4 -1 -8 -1q-14 0 -30 9q-20 11 -36 37q-4 60 -9 152l-11 204q-6 112 -11 235t-9 243t-5 229zM-218 1744q0 24 14 51t38 45t54 22t60 -16
q36 -16 61 -63t27 -92t-27 -72t-101 -3q-22 0 -44 12t-40 31t-30 41t-12 44zM158 1744q0 24 14 51t38 45t54 22t60 -16q36 -16 61 -63t27 -92t-27 -72t-101 -3q-22 0 -44 12t-40 31t-30 41t-12 44z" />
    <glyph glyph-name="Ntilde" unicode="&#xd1;" horiz-adv-x="916" 
d="M40 1346q-7 19 -7 35q0 21 12 35q21 26 55 31q8 1 15 1q26 0 51 -13q32 -17 36 -59q56 -140 104 -309l99 -340q51 -171 111 -331t138 -282q0 -2 4 -3t6 -1q22 94 34 203t18 224t7 233t1 227v206q0 97 4 173q6 16 25 23t39 5t36 -15q14 -12 14 -30q0 -33 -9.5 -107
t-11.5 -115q-5 -123 -6 -257q0 -67 -0.5 -134.5t0.5 -136.5v-54q0 -107 -3 -206q-4 -123 -14 -222t-33 -158t-61 -67q-5 -1 -10 -1q-36 0 -88 51q-42 58 -79 143t-71 183l-67 202l-66 199q-33 95 -67 174t-70 127q0 -54 5 -130t13 -164l16 -180l16 -180q8 -88 13 -164
t5 -130q0 -28 -11 -49t-29 -32t-40 -8t-42 25q-8 20 -14 83t-13 154t-12 202t-11 227t-11 231t-11 211t-11 167t-9 103zM8 1694q0 50 17 94t42 77t55 52t58 19q66 0 106 -28t73 -61t72 -60t103 -27q40 0 71 23t57 50l50 50q24 23 52 23q36 -36 36 -74t-22 -73t-60 -64
t-79 -50t-76 -32t-51 -7q-48 12 -92 49l-87 74q-43 37 -85 65t-82 22q-24 0 -39 -27t-27 -60t-27 -60t-41 -27q-14 0 -19 16t-5 36z" />
    <glyph glyph-name="Ograve" unicode="&#xd2;" 
d="M44 526q0 72 17 164t50 188t79 189t104 165t125 116t143 44q116 -14 206 -82t151 -170t93 -227t32 -254t-32 -251t-97 -218t-166 -154t-237 -60q-108 0 -195 48t-148 126t-93 177t-32 199zM172 540q-2 -22 -2 -43q0 -77 23 -146q29 -87 103 -151t206 -90q57 -14 106 -14
q55 0 100 18q84 34 135 110t70 184q15 86 15 177q0 24 -1 48q-5 117 -34 233t-76 207t-109 148t-134 57q-32 0 -80 -45t-101 -119t-102 -170t-80 -199t-39 -205zM434 1846q-18 36 5 64t65 26l55 -47q31 -27 60 -59t49 -68t20 -74q0 -32 -7 -53t-41 -21q-24 0 -54 29t-60 68
t-55 78z" />
    <glyph glyph-name="Oacute" unicode="&#xd3;" 
d="M44 526q0 72 17 164t50 188t79 189t104 165t125 116t143 44q116 -14 206 -82t151 -170t93 -227t32 -254t-32 -251t-97 -218t-166 -154t-237 -60q-108 0 -195 48t-148 126t-93 177t-32 199zM172 540q-2 -22 -2 -43q0 -77 23 -146q29 -87 103 -151t206 -90q57 -14 106 -14
q55 0 100 18q84 34 135 110t70 184q15 86 15 177q0 24 -1 48q-5 117 -34 233t-76 207t-109 148t-134 57q-32 0 -80 -45t-101 -119t-102 -170t-80 -199t-39 -205zM400 1686q0 36 21 71t52 67t65 58t58 46q46 2 70 -25t4 -63q-14 -18 -40 -55t-57 -75t-63 -67t-58 -29
q-38 0 -45 21t-7 51z" />
    <glyph glyph-name="Ocircumflex" unicode="&#xd4;" 
d="M44 526q0 72 17 164t50 188t79 189t104 165t125 116t143 44q116 -14 206 -82t151 -170t93 -227t32 -254t-32 -251t-97 -218t-166 -154t-237 -60q-108 0 -195 48t-148 126t-93 177t-32 199zM172 540q-2 -22 -2 -43q0 -77 23 -146q29 -87 103 -151t206 -90q57 -14 106 -14
q55 0 100 18q84 34 135 110t70 184q15 86 15 177q0 24 -1 48q-5 117 -34 233t-76 207t-109 148t-134 57q-32 0 -80 -45t-101 -119t-102 -170t-80 -199t-39 -205zM262 1698l32 53l43 68l46 67q23 32 39 50q24 38 55 66t61 36t58 -11t46 -75l188 -254q12 -40 -6 -59t-47 -20
t-59 14t-44 43q-6 14 -23 38l-37 51q-20 27 -41 51t-37 38l-148 -214q-14 -22 -40 -27t-48 4t-35 30t-3 51z" />
    <glyph glyph-name="Otilde" unicode="&#xd5;" 
d="M44 526q0 72 17 164t50 188t79 189t104 165t125 116t143 44q116 -14 206 -82t151 -170t93 -227t32 -254t-32 -251t-97 -218t-166 -154t-237 -60q-108 0 -195 48t-148 126t-93 177t-32 199zM172 540q-2 -22 -2 -43q0 -77 23 -146q29 -87 103 -151t206 -90q57 -14 106 -14
q55 0 100 18q84 34 135 110t70 184q15 86 15 177q0 24 -1 48q-5 117 -34 233t-76 207t-109 148t-134 57q-32 0 -80 -45t-101 -119t-102 -170t-80 -199t-39 -205zM98 1694q0 50 17 94t42 77t55 52t58 19q66 0 106 -28t73 -61t72 -60t103 -27q40 0 71 23t57 50l50 50
q24 23 52 23q36 -36 36 -74t-22 -73t-60 -64t-79 -50t-76 -32t-51 -7q-48 12 -92 49l-87 74q-43 37 -85 65t-82 22q-24 0 -39 -27t-27 -60t-27 -60t-41 -27q-14 0 -19 16t-5 36z" />
    <glyph glyph-name="Odieresis" unicode="&#xd6;" 
d="M44 526q0 72 17 164t50 188t79 189t104 165t125 116t143 44q116 -14 206 -82t151 -170t93 -227t32 -254t-32 -251t-97 -218t-166 -154t-237 -60q-108 0 -195 48t-148 126t-93 177t-32 199zM172 540q-2 -22 -2 -43q0 -77 23 -146q29 -87 103 -151t206 -90q57 -14 106 -14
q55 0 100 18q84 34 135 110t70 184q15 86 15 177q0 24 -1 48q-5 117 -34 233t-76 207t-109 148t-134 57q-32 0 -80 -45t-101 -119t-102 -170t-80 -199t-39 -205zM202 1744q0 24 14 51t38 45t54 22t60 -16q36 -16 61 -63t27 -92t-27 -72t-101 -3q-22 0 -44 12t-40 31t-30 41
t-12 44zM578 1744q0 24 14 51t38 45t54 22t60 -16q36 -16 61 -63t27 -92t-27 -72t-101 -3q-22 0 -44 12t-40 31t-30 41t-12 44z" />
    <glyph glyph-name="Oslash" unicode="&#xd8;" 
d="M44 526q0 72 17 164t50 188t79 189t104 165t125 116t143 44q116 -14 206 -82t151 -170t93 -227t32 -254t-32 -251t-97 -218t-166 -154t-237 -60q-108 0 -195 48t-148 126t-93 177t-32 199zM172 540q-2 -22 -2 -43q0 -77 23 -146q29 -87 103 -151t206 -90q57 -14 106 -14
q55 0 100 18q84 34 135 110t70 184q15 86 15 177q0 24 -1 48q-5 117 -34 233t-76 207t-109 148t-134 57q-32 0 -80 -45t-101 -119t-102 -170t-80 -199t-39 -205zM167 -129q-11 33 31 83l570 1400q40 34 64 43t35 -3t9 -41t-14 -71l-518 -1378q-20 -50 -60 -67t-73 -8t-44 42
z" />
    <glyph glyph-name="Ugrave" unicode="&#xd9;" horiz-adv-x="904" 
d="M32 1298v8q0 24 17 44t38 29t40 1t23 -40q44 -262 68 -449l40 -313q16 -126 28 -202t29 -118t44 -60t75 -28q98 46 156 127t87 182t33 215q1 30 1 61q0 83 -8 165q-11 112 -32 215t-41 181q-2 4 -2 6v6q0 32 12 52t29 25q5 2 11 2q12 0 26 -8q20 -11 38 -37
q18 -110 42 -234t38 -252q11 -100 11 -198q0 -28 -1 -56q-4 -126 -42 -237t-120 -202t-224 -151q-19 -3 -36 -3q-63 0 -112 45q-62 58 -104 163t-68 241t-41 274t-22 262t-10 207t-7 108t-14 -35q-2 2 -2 4zM336 1846q-18 36 5 64t65 26l55 -47q31 -27 60 -59t49 -68t20 -74
q0 -32 -7 -53t-41 -21q-24 0 -54 29t-60 68t-55 78z" />
    <glyph glyph-name="Uacute" unicode="&#xda;" horiz-adv-x="904" 
d="M32 1298v8q0 24 17 44t38 29t40 1t23 -40q44 -262 68 -449l40 -313q16 -126 28 -202t29 -118t44 -60t75 -28q98 46 156 127t87 182t33 215q1 30 1 61q0 83 -8 165q-11 112 -32 215t-41 181q-2 4 -2 6v6q0 32 12 52t29 25q5 2 11 2q12 0 26 -8q20 -11 38 -37
q18 -110 42 -234t38 -252q11 -100 11 -198q0 -28 -1 -56q-4 -126 -42 -237t-120 -202t-224 -151q-19 -3 -36 -3q-63 0 -112 45q-62 58 -104 163t-68 241t-41 274t-22 262t-10 207t-7 108t-14 -35q-2 2 -2 4zM304 1686q0 36 21 71t52 67t65 58t58 46q46 2 70 -25t4 -63
q-14 -18 -40 -55t-57 -75t-63 -67t-58 -29q-38 0 -45 21t-7 51z" />
    <glyph glyph-name="Ucircumflex" unicode="&#xdb;" horiz-adv-x="904" 
d="M32 1298v8q0 24 17 44t38 29t40 1t23 -40q44 -262 68 -449l40 -313q16 -126 28 -202t29 -118t44 -60t75 -28q98 46 156 127t87 182t33 215q1 30 1 61q0 83 -8 165q-11 112 -32 215t-41 181q-2 4 -2 6v6q0 32 12 52t29 25q5 2 11 2q12 0 26 -8q20 -11 38 -37
q18 -110 42 -234t38 -252q11 -100 11 -198q0 -28 -1 -56q-4 -126 -42 -237t-120 -202t-224 -151q-19 -3 -36 -3q-63 0 -112 45q-62 58 -104 163t-68 241t-41 274t-22 262t-10 207t-7 108t-14 -35q-2 2 -2 4zM166 1698l32 53l43 68l46 67q23 32 39 50q24 38 55 66t61 36
t58 -11t46 -75l188 -254q12 -40 -6 -59t-47 -20t-59 14t-44 43q-6 14 -23 38l-37 51q-20 27 -41 51t-37 38l-148 -214q-14 -22 -40 -27t-48 4t-35 30t-3 51z" />
    <glyph glyph-name="Udieresis" unicode="&#xdc;" horiz-adv-x="904" 
d="M32 1298v8q0 24 17 44t38 29t40 1t23 -40q44 -262 68 -449l40 -313q16 -126 28 -202t29 -118t44 -60t75 -28q98 46 156 127t87 182t33 215q1 30 1 61q0 83 -8 165q-11 112 -32 215t-41 181q-2 4 -2 6v6q0 32 12 52t29 25q5 2 11 2q12 0 26 -8q20 -11 38 -37
q18 -110 42 -234t38 -252q11 -100 11 -198q0 -28 -1 -56q-4 -126 -42 -237t-120 -202t-224 -151q-19 -3 -36 -3q-63 0 -112 45q-62 58 -104 163t-68 241t-41 274t-22 262t-10 207t-7 108t-14 -35q-2 2 -2 4zM106 1744q0 24 14 51t38 45t54 22t60 -16q36 -16 61 -63t27 -92
t-27 -72t-101 -3q-22 0 -44 12t-40 31t-30 41t-12 44zM482 1744q0 24 14 51t38 45t54 22t60 -16q36 -16 61 -63t27 -92t-27 -72t-101 -3q-22 0 -44 12t-40 31t-30 41t-12 44z" />
    <glyph glyph-name="Yacute" unicode="&#xdd;" horiz-adv-x="1130" 
d="M-8 1310l72 110l806 -822l-2 934q64 30 97 36q12 2 21 2q17 0 27 -7q15 -11 17 -33t2 -48l-66 -1244l204 46q22 4 38 -10q17 -15 17 -38q0 -21 -19 -47q-20 -27 -68 -49l-152 -52q-1 -42 -1 -87t1 -94q1 -39 1 -78q0 -58 -2 -117q-3 -98 -12 -190t-31 -167t-62 -126
t-102 -65q-62 -27 -135 -27q-14 0 -28 1q-89 6 -173 41t-154 96t-105 142q-28 66 -28 141q0 17 1 35q8 95 80 200t217 214t383 215l8 196zM298 -523q12 -83 95 -142t261 -73q10 -1 19 -1q53 0 89 30q42 35 66 96t33 143t11 173q1 36 1 73q0 55 -2 112q-3 94 -3 178
q-106 -20 -213 -83t-191 -148t-131 -180q-37 -76 -37 -144q0 -17 2 -34zM416 1686q0 36 21 71t52 67t65 58t58 46q46 2 70 -25t4 -63q-14 -18 -40 -55t-57 -75t-63 -67t-58 -29q-38 0 -45 21t-7 51z" />
    <glyph glyph-name="Thorn" unicode="&#xde;" horiz-adv-x="1110" 
d="M-42 1398q52 50 93 16t71 -118t48 -200t24 -228q58 66 143 100t179 40t187 -15t170 -69t130 -120t63 -166q0 -104 -50 -217t-131 -207t-185 -155t-210 -61q-16 -8 -36 -7t-35 11t-22 29t3 47q84 46 180 90t176 106t131 149t45 219q-8 72 -65 125t-136 81t-169 31
t-164 -25t-121 -87t-39 -153q0 -4 -3 -4t-3 -18t5 -66t20 -149t43 -266l74 -417q14 -64 -8 -80t-53 -4t-57 44t-20 64l-107 585l-76 439q-31 186 -50 311t-29 201t-13 109t-3 35z" />
    <glyph glyph-name="germandbls" unicode="&#xdf;" horiz-adv-x="1040" 
d="M53 805q3 137 16 252t34 197t53 114q114 80 218 103t186 1t136 -80t68 -136t-17 -170t-119 -182q74 -10 141 -43t118 -86t81 -120t30 -143q0 -140 -59 -232t-151 -147t-205 -79t-223 -30l-8 140q86 -28 176 -15t164 61t121 127t47 185q-4 102 -54 159t-123 76t-158 4
t-157 -55l8 138q54 32 104 75t87 93t55 106t8 118q-30 62 -94 87t-134 7t-130 -78t-80 -166q-20 -148 -22 -298t11 -313t40 -344t65 -393q-6 0 -15 -9t-20 -19t-20 -19t-15 -9q-34 32 -62 115t-49 197t-34 252t-17 280t-1 279z" />
    <glyph glyph-name="agrave" unicode="&#xe0;" horiz-adv-x="934" 
d="M32 398q-1 14 -1 28q0 77 28 153q33 89 91 164t136 129t164 74q44 10 89 10q42 0 85 -9q88 -19 166 -89q2 -114 4 -208t11 -186t27 -189t52 -217q14 -25 14 -48q0 -14 -5 -27q-13 -35 -38 -51q-16 -10 -34 -10q-10 0 -20 3q-29 9 -39 59l-64 370q-44 -70 -112 -130
t-143 -98t-150 -49q-21 -3 -41 -3q-51 0 -93 20q-59 28 -95 101q-32 66 -32 178v25zM170 420q10 -106 47 -151t88 -45t108 39t105 102t79 142t33 159q0 26 -5 56t-17 56t-31 43t-49 17q-76 0 -141 -39t-113 -101t-76 -136t-28 -142zM352 1474q-18 36 5 64t65 26l55 -47
q31 -27 60 -59t49 -68t20 -74q0 -32 -7 -53t-41 -21q-24 0 -54 29t-60 68t-55 78z" />
    <glyph glyph-name="aacute" unicode="&#xe1;" horiz-adv-x="934" 
d="M32 398q-1 14 -1 28q0 77 28 153q33 89 91 164t136 129t164 74q44 10 89 10q42 0 85 -9q88 -19 166 -89q2 -114 4 -208t11 -186t27 -189t52 -217q14 -25 14 -48q0 -14 -5 -27q-13 -35 -38 -51q-16 -10 -34 -10q-10 0 -20 3q-29 9 -39 59l-64 370q-44 -70 -112 -130
t-143 -98t-150 -49q-21 -3 -41 -3q-51 0 -93 20q-59 28 -95 101q-32 66 -32 178v25zM170 420q10 -106 47 -151t88 -45t108 39t105 102t79 142t33 159q0 26 -5 56t-17 56t-31 43t-49 17q-76 0 -141 -39t-113 -101t-76 -136t-28 -142zM318 1314q0 36 21 71t52 67t65 58t58 46
q46 2 70 -25t4 -63q-14 -18 -40 -55t-57 -75t-63 -67t-58 -29q-38 0 -45 21t-7 51z" />
    <glyph glyph-name="acircumflex" unicode="&#xe2;" horiz-adv-x="934" 
d="M32 398q-1 14 -1 28q0 77 28 153q33 89 91 164t136 129t164 74q44 10 89 10q42 0 85 -9q88 -19 166 -89q2 -114 4 -208t11 -186t27 -189t52 -217q14 -25 14 -48q0 -14 -5 -27q-13 -35 -38 -51q-16 -10 -34 -10q-10 0 -20 3q-29 9 -39 59l-64 370q-44 -70 -112 -130
t-143 -98t-150 -49q-21 -3 -41 -3q-51 0 -93 20q-59 28 -95 101q-32 66 -32 178v25zM170 420q10 -106 47 -151t88 -45t108 39t105 102t79 142t33 159q0 26 -5 56t-17 56t-31 43t-49 17q-76 0 -141 -39t-113 -101t-76 -136t-28 -142zM180 1326l32 53l43 68l46 67q23 32 39 50
q24 38 55 66t61 36t58 -11t46 -75l188 -254q12 -40 -6 -59t-47 -20t-59 14t-44 43q-6 14 -23 38l-37 51q-20 27 -41 51t-37 38l-148 -214q-14 -22 -40 -27t-48 4t-35 30t-3 51z" />
    <glyph glyph-name="atilde" unicode="&#xe3;" horiz-adv-x="934" 
d="M32 398q-1 14 -1 28q0 77 28 153q33 89 91 164t136 129t164 74q44 10 89 10q42 0 85 -9q88 -19 166 -89q2 -114 4 -208t11 -186t27 -189t52 -217q14 -25 14 -48q0 -14 -5 -27q-13 -35 -38 -51q-16 -10 -34 -10q-10 0 -20 3q-29 9 -39 59l-64 370q-44 -70 -112 -130
t-143 -98t-150 -49q-21 -3 -41 -3q-51 0 -93 20q-59 28 -95 101q-32 66 -32 178v25zM170 420q10 -106 47 -151t88 -45t108 39t105 102t79 142t33 159q0 26 -5 56t-17 56t-31 43t-49 17q-76 0 -141 -39t-113 -101t-76 -136t-28 -142zM16 1322q0 50 17 94t42 77t55 52t58 19
q66 0 106 -28t73 -61t72 -60t103 -27q40 0 71 23t57 50l50 50q24 23 52 23q36 -36 36 -74t-22 -73t-60 -64t-79 -50t-76 -32t-51 -7q-48 12 -92 49l-87 74q-43 37 -85 65t-82 22q-24 0 -39 -27t-27 -60t-27 -60t-41 -27q-14 0 -19 16t-5 36z" />
    <glyph glyph-name="adieresis" unicode="&#xe4;" horiz-adv-x="934" 
d="M32 398q-1 14 -1 28q0 77 28 153q33 89 91 164t136 129t164 74q44 10 89 10q42 0 85 -9q88 -19 166 -89q2 -114 4 -208t11 -186t27 -189t52 -217q14 -25 14 -48q0 -14 -5 -27q-13 -35 -38 -51q-16 -10 -34 -10q-10 0 -20 3q-29 9 -39 59l-64 370q-44 -70 -112 -130
t-143 -98t-150 -49q-21 -3 -41 -3q-51 0 -93 20q-59 28 -95 101q-32 66 -32 178v25zM170 420q10 -106 47 -151t88 -45t108 39t105 102t79 142t33 159q0 26 -5 56t-17 56t-31 43t-49 17q-76 0 -141 -39t-113 -101t-76 -136t-28 -142zM120 1372q0 24 14 51t38 45t54 22t60 -16
q36 -16 61 -63t27 -92t-27 -72t-101 -3q-22 0 -44 12t-40 31t-30 41t-12 44zM496 1372q0 24 14 51t38 45t54 22t60 -16q36 -16 61 -63t27 -92t-27 -72t-101 -3q-22 0 -44 12t-40 31t-30 41t-12 44z" />
    <glyph glyph-name="aring" unicode="&#xe5;" horiz-adv-x="934" 
d="M32 398q-1 14 -1 28q0 77 28 153q33 89 91 164t136 129t164 74q44 10 89 10q42 0 85 -9q88 -19 166 -89q2 -114 4 -208t11 -186t27 -189t52 -217q14 -25 14 -48q0 -14 -5 -27q-13 -35 -38 -51q-16 -10 -34 -10q-10 0 -20 3q-29 9 -39 59l-64 370q-44 -70 -112 -130
t-143 -98t-150 -49q-21 -3 -41 -3q-51 0 -93 20q-59 28 -95 101q-32 66 -32 178v25zM170 420q10 -106 47 -151t88 -45t108 39t105 102t79 142t33 159q0 26 -5 56t-17 56t-31 43t-49 17q-76 0 -141 -39t-113 -101t-76 -136t-28 -142zM142 1232q6 62 42 100t87 56t108 21
t105 -1q70 -8 144 -21t132 -42t91 -82t21 -139q-36 -64 -84 -101t-103 -56t-115 -23t-120 2q-48 4 -104 29t-103 63t-77 88t-24 106zM274 1191q-8 -41 35 -80t145 -51q74 -18 129 -9t86 34t38 60t-15 66t-73 53t-135 24q-94 4 -148 -26t-62 -71z" />
    <glyph glyph-name="ae" unicode="&#xe6;" horiz-adv-x="1588" 
d="M32 398q-1 14 -1 28q0 77 28 153q33 89 91 164t136 129t164 74q44 10 89 10q42 0 85 -9q88 -19 166 -89q2 -114 4 -208t11 -186t27 -189t52 -217q14 -25 14 -48q0 -14 -5 -27q-13 -35 -38 -51q-16 -10 -34 -10q-10 0 -20 3q-29 9 -39 59l-64 370q-44 -70 -112 -130
t-143 -98t-150 -49q-21 -3 -41 -3q-51 0 -93 20q-59 28 -95 101q-32 66 -32 178v25zM170 420q10 -106 47 -151t88 -45t108 39t105 102t79 142t33 159q0 26 -5 56t-17 56t-31 43t-49 17q-76 0 -141 -39t-113 -101t-76 -136t-28 -142zM690 549q6 119 59 217t157 160t264 64
q36 0 77 -13t74 -37t55 -58t22 -76q0 -52 -32 -92t-84 -72t-115 -56t-126 -40t-117 -25t-88 -13q10 -120 58 -215t115 -158t143 -88q42 -14 81 -14q31 0 61 9q26 4 66 15t83 21t82 14t62 -4q25 -9 25 -36q0 -25 -30 -70q-168 -84 -310 -86h-10q-136 0 -242 53
q-110 55 -186 153t-113 213q-32 99 -32 201q0 16 1 33zM860 622q30 0 96 13t134 36t120 57t52 76q0 34 -31 52t-61 18q-46 0 -100 -22t-101 -58t-78 -81t-31 -91z" />
    <glyph glyph-name="ccedilla" unicode="&#xe7;" horiz-adv-x="880" 
d="M29 498q-2 26 -2 51q0 86 24 162q31 99 102 167t187 74q84 -14 150 -59t103 -98q39 -56 39 -106q0 -46 -46 -67q-36 26 -72 59l-70 62q-34 29 -67 47q-26 14 -51 14q-7 0 -14 -1q-32 -5 -65 -39t-65 -110q-26 -82 -26 -152q0 -21 2 -40q10 -86 52 -147t109 -97t145 -43
q19 -2 38 -2q60 0 124 17q84 22 162 76q54 -32 54 -64t-33 -60t-88 -51t-114 -38t-110 -21q-26 -3 -44.5 -3t-30.5 3q-120 10 -204 80t-132 171t-57 215zM240 -288q0 36 18 48t54 8q-8 -38 14 -80t61 -68t90 -25t99 51q20 58 12 85t-34 41t-63 26t-73 40t-65 81t-39 151
q6 40 19 58t28 17t29 -18t24 -45q-4 -72 14 -109t47 -57t64 -31t67 -32t56 -59t30 -112q-4 -76 -43 -122t-94 -64t-116 -11t-110 36t-76 78t-13 113z" />
    <glyph glyph-name="egrave" unicode="&#xe8;" horiz-adv-x="918" 
d="M10 565q6 119 59 217t157 160t264 64q36 0 77 -13t74 -37t55 -58t22 -76q0 -52 -32 -92t-84 -72t-115 -56t-126 -40t-117 -25t-88 -13q10 -120 58 -215t115 -158t143 -88q42 -14 81 -14q31 0 61 9q26 4 66 15t83 21t82 14t62 -4q25 -9 25 -36q0 -25 -30 -70
q-168 -84 -310 -86h-10q-136 0 -242 53q-110 55 -186 153t-113 213q-32 99 -32 201q0 16 1 33zM180 638q30 0 96 13t134 36t120 57t52 76q0 34 -31 52t-61 18q-46 0 -100 -22t-101 -58t-78 -81t-31 -91zM344 1474q-18 36 5 64t65 26l55 -47q31 -27 60 -59t49 -68t20 -74
q0 -32 -7 -53t-41 -21q-24 0 -54 29t-60 68t-55 78z" />
    <glyph glyph-name="eacute" unicode="&#xe9;" horiz-adv-x="918" 
d="M10 565q6 119 59 217t157 160t264 64q36 0 77 -13t74 -37t55 -58t22 -76q0 -52 -32 -92t-84 -72t-115 -56t-126 -40t-117 -25t-88 -13q10 -120 58 -215t115 -158t143 -88q42 -14 81 -14q31 0 61 9q26 4 66 15t83 21t82 14t62 -4q25 -9 25 -36q0 -25 -30 -70
q-168 -84 -310 -86h-10q-136 0 -242 53q-110 55 -186 153t-113 213q-32 99 -32 201q0 16 1 33zM180 638q30 0 96 13t134 36t120 57t52 76q0 34 -31 52t-61 18q-46 0 -100 -22t-101 -58t-78 -81t-31 -91zM310 1314q0 36 21 71t52 67t65 58t58 46q46 2 70 -25t4 -63
q-14 -18 -40 -55t-57 -75t-63 -67t-58 -29q-38 0 -45 21t-7 51z" />
    <glyph glyph-name="ecircumflex" unicode="&#xea;" horiz-adv-x="918" 
d="M10 565q6 119 59 217t157 160t264 64q36 0 77 -13t74 -37t55 -58t22 -76q0 -52 -32 -92t-84 -72t-115 -56t-126 -40t-117 -25t-88 -13q10 -120 58 -215t115 -158t143 -88q42 -14 81 -14q31 0 61 9q26 4 66 15t83 21t82 14t62 -4q25 -9 25 -36q0 -25 -30 -70
q-168 -84 -310 -86h-10q-136 0 -242 53q-110 55 -186 153t-113 213q-32 99 -32 201q0 16 1 33zM180 638q30 0 96 13t134 36t120 57t52 76q0 34 -31 52t-61 18q-46 0 -100 -22t-101 -58t-78 -81t-31 -91zM172 1326l32 53l43 68l46 67q23 32 39 50q24 38 55 66t61 36t58 -11
t46 -75l188 -254q12 -40 -6 -59t-47 -20t-59 14t-44 43q-6 14 -23 38l-37 51q-20 27 -41 51t-37 38l-148 -214q-14 -22 -40 -27t-48 4t-35 30t-3 51z" />
    <glyph glyph-name="edieresis" unicode="&#xeb;" horiz-adv-x="918" 
d="M10 565q6 119 59 217t157 160t264 64q36 0 77 -13t74 -37t55 -58t22 -76q0 -52 -32 -92t-84 -72t-115 -56t-126 -40t-117 -25t-88 -13q10 -120 58 -215t115 -158t143 -88q42 -14 81 -14q31 0 61 9q26 4 66 15t83 21t82 14t62 -4q25 -9 25 -36q0 -25 -30 -70
q-168 -84 -310 -86h-10q-136 0 -242 53q-110 55 -186 153t-113 213q-32 99 -32 201q0 16 1 33zM180 638q30 0 96 13t134 36t120 57t52 76q0 34 -31 52t-61 18q-46 0 -100 -22t-101 -58t-78 -81t-31 -91zM112 1372q0 24 14 51t38 45t54 22t60 -16q36 -16 61 -63t27 -92
t-27 -72t-101 -3q-22 0 -44 12t-40 31t-30 41t-12 44zM488 1372q0 24 14 51t38 45t54 22t60 -16q36 -16 61 -63t27 -92t-27 -72t-101 -3q-22 0 -44 12t-40 31t-30 41t-12 44z" />
    <glyph glyph-name="igrave" unicode="&#xec;" horiz-adv-x="352" 
d="M136 912q4 14 16 24t27 12t33 -6t34 -30q6 -212 9 -433t-1 -439q-12 -16 -32 -29t-38 -17t-31 5t-9 37zM60 1474q-18 36 5 64t65 26l55 -47q31 -27 60 -59t49 -68t20 -74q0 -32 -7 -53t-41 -21q-24 0 -54 29t-60 68t-55 78z" />
    <glyph glyph-name="iacute" unicode="&#xed;" horiz-adv-x="352" 
d="M136 912q4 14 16 24t27 12t33 -6t34 -30q6 -212 9 -433t-1 -439q-12 -16 -32 -29t-38 -17t-31 5t-9 37zM30 1314q0 36 21 71t52 67t65 58t58 46q46 2 70 -25t4 -63q-14 -18 -40 -55t-57 -75t-63 -67t-58 -29q-38 0 -45 21t-7 51z" />
    <glyph glyph-name="icircumflex" unicode="&#xee;" horiz-adv-x="352" 
d="M136 912q4 14 16 24t27 12t33 -6t34 -30q6 -212 9 -433t-1 -439q-12 -16 -32 -29t-38 -17t-31 5t-9 37zM-108 1326l32 53l43 68l46 67q23 32 39 50q24 38 55 66t61 36t58 -11t46 -75l188 -254q12 -40 -6 -59t-47 -20t-59 14t-44 43q-6 14 -23 38l-37 51q-20 27 -41 51
t-37 38l-148 -214q-14 -22 -40 -27t-48 4t-35 30t-3 51z" />
    <glyph glyph-name="idieresis" unicode="&#xef;" horiz-adv-x="352" 
d="M136 912q4 14 16 24t27 12t33 -6t34 -30q6 -212 9 -433t-1 -439q-12 -16 -32 -29t-38 -17t-31 5t-9 37zM-168 1372q0 24 14 51t38 45t54 22t60 -16q36 -16 61 -63t27 -92t-27 -72t-101 -3q-22 0 -44 12t-40 31t-30 41t-12 44zM208 1372q0 24 14 51t38 45t54 22t60 -16
q36 -16 61 -63t27 -92t-27 -72t-101 -3q-22 0 -44 12t-40 31t-30 41t-12 44z" />
    <glyph glyph-name="eth" unicode="&#xf0;" horiz-adv-x="786" 
d="M37 553q11 87 61 149t146 70q34 2 70 -20t70 -57t65 -79t56 -89t42 -85t25 -66q0 58 -12 122t-30 130t-39 130l-39 122q-30 2 -63 1t-71 -1q-44 4 -62 28t-13 51t31 49t72 22q14 -2 27 -2h27l-45 111q-19 45 -27 57q-12 40 -4 65t27 32t45 -6t50 -49q16 -42 40 -97
l52 -119q48 -4 96 -7t96 -7q18 -52 22 -81t-10 -42t-49 -14t-93 3l53 -204q27 -106 43 -207t16 -192t-28 -159t-89 -109t-165 -41q-96 8 -173 69t-130 148t-77 187t-13 187zM146 443q6 -55 32 -114t64 -108t82 -83t86 -40q36 0 50 21t17 51t0 64t-3 60q0 28 -22 81t-56 106
t-76 93t-82 40q-56 -24 -77 -70t-15 -101z" />
    <glyph glyph-name="ntilde" unicode="&#xf1;" horiz-adv-x="982" 
d="M44 790q0 34 12 47t46 13q28 0 39 -18t16 -45t10 -58t21 -57q10 40 42 101t76 119t96 99t100 41q29 6 55 6q75 0 134 -50q79 -68 132 -199t80 -311t31 -380q0 -36 -11 -61t-30 -34t-42 1t-47 46q-10 10 -13 53t-6 107t-7 142t-13 157t-27 152t-47 128t-72 84
q-34 23 -79 23q-13 0 -26 -2q-34 0 -66 -28t-59 -73t-49 -100t-37 -108t-23 -99t-8 -70q0 -48 8 -94t17 -92t17 -92t8 -92q0 -36 -15 -53t-35 -19h-5l-35 11q-20 13 -28 39l-67 311l-45 212l-28 133q-10 48 -14 71t-5 30t-1 9zM40 1322q0 50 17 94t42 77t55 52t58 19
q66 0 106 -28t73 -61t72 -60t103 -27q40 0 71 23t57 50l50 50q24 23 52 23q36 -36 36 -74t-22 -73t-60 -64t-79 -50t-76 -32t-51 -7q-48 12 -92 49l-87 74q-43 37 -85 65t-82 22q-24 0 -39 -27t-27 -60t-27 -60t-41 -27q-14 0 -19 16t-5 36z" />
    <glyph glyph-name="ograve" unicode="&#xf2;" horiz-adv-x="1030" 
d="M38 612q0 88 29 170t82 145t127 101t166 38q102 -4 191 -50t158 -119t114 -166t61 -191q8 -46 8 -92q0 -51 -10 -101q-18 -95 -75 -172t-158 -129t-251 -62q-112 0 -195 63t-138 157t-82 204t-27 204zM172 590q0 -72 13 -154t47 -152t95 -116t157 -46q152 16 238 81
t115 154q18 54 18 112q0 38 -8 78q-19 101 -76 187t-144 146t-193 68q-66 -2 -112 -28t-78 -73t-49 -112t-23 -145zM400 1474q-18 36 5 64t65 26l55 -47q31 -27 60 -59t49 -68t20 -74q0 -32 -7 -53t-41 -21q-24 0 -54 29t-60 68t-55 78z" />
    <glyph glyph-name="oacute" unicode="&#xf3;" horiz-adv-x="1030" 
d="M38 612q0 88 29 170t82 145t127 101t166 38q102 -4 191 -50t158 -119t114 -166t61 -191q8 -46 8 -92q0 -51 -10 -101q-18 -95 -75 -172t-158 -129t-251 -62q-112 0 -195 63t-138 157t-82 204t-27 204zM172 590q0 -72 13 -154t47 -152t95 -116t157 -46q152 16 238 81
t115 154q18 54 18 112q0 38 -8 78q-19 101 -76 187t-144 146t-193 68q-66 -2 -112 -28t-78 -73t-49 -112t-23 -145zM366 1314q0 36 21 71t52 67t65 58t58 46q46 2 70 -25t4 -63q-14 -18 -40 -55t-57 -75t-63 -67t-58 -29q-38 0 -45 21t-7 51z" />
    <glyph glyph-name="ocircumflex" unicode="&#xf4;" horiz-adv-x="1030" 
d="M38 612q0 88 29 170t82 145t127 101t166 38q102 -4 191 -50t158 -119t114 -166t61 -191q8 -46 8 -92q0 -51 -10 -101q-18 -95 -75 -172t-158 -129t-251 -62q-112 0 -195 63t-138 157t-82 204t-27 204zM172 590q0 -72 13 -154t47 -152t95 -116t157 -46q152 16 238 81
t115 154q18 54 18 112q0 38 -8 78q-19 101 -76 187t-144 146t-193 68q-66 -2 -112 -28t-78 -73t-49 -112t-23 -145zM228 1326l32 53l43 68l46 67q23 32 39 50q24 38 55 66t61 36t58 -11t46 -75l188 -254q12 -40 -6 -59t-47 -20t-59 14t-44 43q-6 14 -23 38l-37 51
q-20 27 -41 51t-37 38l-148 -214q-14 -22 -40 -27t-48 4t-35 30t-3 51z" />
    <glyph glyph-name="otilde" unicode="&#xf5;" horiz-adv-x="1030" 
d="M38 612q0 88 29 170t82 145t127 101t166 38q102 -4 191 -50t158 -119t114 -166t61 -191q8 -46 8 -92q0 -51 -10 -101q-18 -95 -75 -172t-158 -129t-251 -62q-112 0 -195 63t-138 157t-82 204t-27 204zM172 590q0 -72 13 -154t47 -152t95 -116t157 -46q152 16 238 81
t115 154q18 54 18 112q0 38 -8 78q-19 101 -76 187t-144 146t-193 68q-66 -2 -112 -28t-78 -73t-49 -112t-23 -145zM64 1322q0 50 17 94t42 77t55 52t58 19q66 0 106 -28t73 -61t72 -60t103 -27q40 0 71 23t57 50l50 50q24 23 52 23q36 -36 36 -74t-22 -73t-60 -64t-79 -50
t-76 -32t-51 -7q-48 12 -92 49l-87 74q-43 37 -85 65t-82 22q-24 0 -39 -27t-27 -60t-27 -60t-41 -27q-14 0 -19 16t-5 36z" />
    <glyph glyph-name="odieresis" unicode="&#xf6;" horiz-adv-x="1030" 
d="M38 612q0 88 29 170t82 145t127 101t166 38q102 -4 191 -50t158 -119t114 -166t61 -191q8 -46 8 -92q0 -51 -10 -101q-18 -95 -75 -172t-158 -129t-251 -62q-112 0 -195 63t-138 157t-82 204t-27 204zM172 590q0 -72 13 -154t47 -152t95 -116t157 -46q152 16 238 81
t115 154q18 54 18 112q0 38 -8 78q-19 101 -76 187t-144 146t-193 68q-66 -2 -112 -28t-78 -73t-49 -112t-23 -145zM168 1372q0 24 14 51t38 45t54 22t60 -16q36 -16 61 -63t27 -92t-27 -72t-101 -3q-22 0 -44 12t-40 31t-30 41t-12 44zM544 1372q0 24 14 51t38 45t54 22
t60 -16q36 -16 61 -63t27 -92t-27 -72t-101 -3q-22 0 -44 12t-40 31t-30 41t-12 44z" />
    <glyph glyph-name="oslash" unicode="&#xf8;" horiz-adv-x="1030" 
d="M38 612q0 88 29 170t82 145t127 101t166 38q102 -4 191 -50t158 -119t114 -166t61 -191q8 -46 8 -92q0 -51 -10 -101q-18 -95 -75 -172t-158 -129t-251 -62q-112 0 -195 63t-138 157t-82 204t-27 204zM172 590q0 -72 13 -154t47 -152t95 -116t157 -46q152 16 238 81
t115 154q18 54 18 112q0 38 -8 78q-19 101 -76 187t-144 146t-193 68q-66 -2 -112 -28t-78 -73t-49 -112t-23 -145zM182.66 13.1113q-9.88086 23.4307 27.8457 58.9316l512.005 994.03q35.9307 24.1406 57.4883 30.5312q21.5576 6.38965 31.4385 -2.12988
q9.88086 -8.52051 8.08496 -29.1113q-1.79688 -20.5908 -12.5762 -50.4111l-465.296 -978.41q-17.9648 -35.501 -53.8945 -47.5723q-35.9307 -12.0703 -65.5732 -5.67969q-29.6416 6.38965 -39.5225 29.8213z" />
    <glyph glyph-name="ugrave" unicode="&#xf9;" horiz-adv-x="884" 
d="M35 698v11q0 72 12 139q13 72 49 124t110 52q0 -120 -17 -234t-17 -234q-3 -32 -3 -60q0 -80 21 -137q28 -77 77 -114t109 -37t115 35t96 102t51 163q4 -16 1 27t-5 111q-1 27 -1 56q0 43 2 91q3 79 20 137t54 78q11 6 25 6q31 0 76 -32q-4 -136 -13 -266t-13 -259
q-2 -52 -2 -103q0 -77 4 -155q6 -129 32 -263q0 -16 -11 -33t-31 -25q-13 -5 -29 -5q-8 0 -16 1q-25 4 -51 28l-36 336q-90 -124 -195 -164q-51 -20 -99 -20q-51 0 -98 22q-92 42 -153 165t-63 327q0 52 -1 130zM326 1474q-18 36 5 64t65 26l55 -47q31 -27 60 -59t49 -68
t20 -74q0 -32 -7 -53t-41 -21q-24 0 -54 29t-60 68t-55 78z" />
    <glyph glyph-name="uacute" unicode="&#xfa;" horiz-adv-x="884" 
d="M35 698v11q0 72 12 139q13 72 49 124t110 52q0 -120 -17 -234t-17 -234q-3 -32 -3 -60q0 -80 21 -137q28 -77 77 -114t109 -37t115 35t96 102t51 163q4 -16 1 27t-5 111q-1 27 -1 56q0 43 2 91q3 79 20 137t54 78q11 6 25 6q31 0 76 -32q-4 -136 -13 -266t-13 -259
q-2 -52 -2 -103q0 -77 4 -155q6 -129 32 -263q0 -16 -11 -33t-31 -25q-13 -5 -29 -5q-8 0 -16 1q-25 4 -51 28l-36 336q-90 -124 -195 -164q-51 -20 -99 -20q-51 0 -98 22q-92 42 -153 165t-63 327q0 52 -1 130zM294 1314q0 36 21 71t52 67t65 58t58 46q46 2 70 -25t4 -63
q-14 -18 -40 -55t-57 -75t-63 -67t-58 -29q-38 0 -45 21t-7 51z" />
    <glyph glyph-name="ucircumflex" unicode="&#xfb;" horiz-adv-x="884" 
d="M35 698v11q0 72 12 139q13 72 49 124t110 52q0 -120 -17 -234t-17 -234q-3 -32 -3 -60q0 -80 21 -137q28 -77 77 -114t109 -37t115 35t96 102t51 163q4 -16 1 27t-5 111q-1 27 -1 56q0 43 2 91q3 79 20 137t54 78q11 6 25 6q31 0 76 -32q-4 -136 -13 -266t-13 -259
q-2 -52 -2 -103q0 -77 4 -155q6 -129 32 -263q0 -16 -11 -33t-31 -25q-13 -5 -29 -5q-8 0 -16 1q-25 4 -51 28l-36 336q-90 -124 -195 -164q-51 -20 -99 -20q-51 0 -98 22q-92 42 -153 165t-63 327q0 52 -1 130zM156 1326l32 53l43 68l46 67q23 32 39 50q24 38 55 66t61 36
t58 -11t46 -75l188 -254q12 -40 -6 -59t-47 -20t-59 14t-44 43q-6 14 -23 38l-37 51q-20 27 -41 51t-37 38l-148 -214q-14 -22 -40 -27t-48 4t-35 30t-3 51z" />
    <glyph glyph-name="udieresis" unicode="&#xfc;" horiz-adv-x="884" 
d="M35 698v11q0 72 12 139q13 72 49 124t110 52q0 -120 -17 -234t-17 -234q-3 -32 -3 -60q0 -80 21 -137q28 -77 77 -114t109 -37t115 35t96 102t51 163q4 -16 1 27t-5 111q-1 27 -1 56q0 43 2 91q3 79 20 137t54 78q11 6 25 6q31 0 76 -32q-4 -136 -13 -266t-13 -259
q-2 -52 -2 -103q0 -77 4 -155q6 -129 32 -263q0 -16 -11 -33t-31 -25q-13 -5 -29 -5q-8 0 -16 1q-25 4 -51 28l-36 336q-90 -124 -195 -164q-51 -20 -99 -20q-51 0 -98 22q-92 42 -153 165t-63 327q0 52 -1 130zM96 1372q0 24 14 51t38 45t54 22t60 -16q36 -16 61 -63
t27 -92t-27 -72t-101 -3q-22 0 -44 12t-40 31t-30 41t-12 44zM472 1372q0 24 14 51t38 45t54 22t60 -16q36 -16 61 -63t27 -92t-27 -72t-101 -3q-22 0 -44 12t-40 31t-30 41t-12 44z" />
    <glyph glyph-name="yacute" unicode="&#xfd;" horiz-adv-x="1130" 
d="M-320 -712q0 154 60 277t154 217t207 161t219 110t192 62q78 17 118 17h8l-616 544q-6 30 2 51t26 30t41 6t47 -19q54 -46 125 -113l146 -134q75 -67 147 -125t130 -86l22 642q8 100 31 137q17 27 33 27l13 -4q23 -14 37 -69q8 -30 8 -68q0 -33 -6 -71v-686l386 108
q32 -24 53 -49q19 -23 19 -43q0 -24 -31 -45q-29 -19 -97 -33l-322 -100q-8 -110 -15 -234t-24 -247t-50 -238t-93 -210t-152 -160t-228 -89q-44 -10 -89 -10q-56 0 -114 15q-105 27 -191 88t-141 150t-55 191zM-164 -712q0 -76 44 -141t110 -109t145 -60q32 -6 62 -6
q45 0 87 14q102 30 172 90t115 139t69 174t36 197t16 206l8 204q-146 0 -299 -51t-279 -144t-206 -224t-80 -289zM416 1314q0 36 21 71t52 67t65 58t58 46q46 2 70 -25t4 -63q-14 -18 -40 -55t-57 -75t-63 -67t-58 -29q-38 0 -45 21t-7 51z" />
    <glyph glyph-name="thorn" unicode="&#xfe;" horiz-adv-x="884" 
d="M2 1372q-18 32 0 58t46 34t52 -7t16 -63l40 -388q122 96 226 130t185 21t140 -63t94 -121t46 -155t-6 -164t-60 -149t-116 -110t-175 -45t-236 44q6 -22 8 -66t3 -95l2 -100q1 -49 5 -83q6 -42 -20 -75t-60 -36t-63 33t-29 128q0 32 2 72t2 101t-4 151t-15 220t-31 309
t-52 419zM194 641q8 -49 36 -88t80 -63t134 -22q98 0 159 36t92 91t33 122t-19 128t-62 108t-99 64t-128 -6t-148 -101q-28 -30 -49 -75t-29 -95t0 -99z" />
    <glyph glyph-name="ydieresis" unicode="&#xff;" horiz-adv-x="1130" 
d="M-320 -712q0 154 60 277t154 217t207 161t219 110t192 62q78 17 118 17h8l-616 544q-6 30 2 51t26 30t41 6t47 -19q54 -46 125 -113l146 -134q75 -67 147 -125t130 -86l22 642q8 100 31 137q17 27 33 27l13 -4q23 -14 37 -69q8 -30 8 -68q0 -33 -6 -71v-686l386 108
q32 -24 53 -49q19 -23 19 -43q0 -24 -31 -45q-29 -19 -97 -33l-322 -100q-8 -110 -15 -234t-24 -247t-50 -238t-93 -210t-152 -160t-228 -89q-44 -10 -89 -10q-56 0 -114 15q-105 27 -191 88t-141 150t-55 191zM-164 -712q0 -76 44 -141t110 -109t145 -60q32 -6 62 -6
q45 0 87 14q102 30 172 90t115 139t69 174t36 197t16 206l8 204q-146 0 -299 -51t-279 -144t-206 -224t-80 -289zM218 1372q0 24 14 51t38 45t54 22t60 -16q36 -16 61 -63t27 -92t-27 -72t-101 -3q-22 0 -44 12t-40 31t-30 41t-12 44zM594 1372q0 24 14 51t38 45t54 22
t60 -16q36 -16 61 -63t27 -92t-27 -72t-101 -3q-22 0 -44 12t-40 31t-30 41t-12 44z" />
    <glyph glyph-name="Aogonek" unicode="&#x104;" horiz-adv-x="1236" 
d="M-6 660q0 21 13 33q15 15 44 16h4q27 0 59 -13l148 -16l218 734q8 46 29 78t44 42q9 4 18 4q14 0 27 -10q22 -16 34 -66l540 -1430q0 -30 -12 -47t-32 -19t-46 13t-50 53l-140 394q-6 4 -46 13t-96 20l-120 23l-118 22q-54 10 -90 16l-36 6l-192 -584q-5 -1 -9 -1
q-12 0 -26 4q-19 5 -34 16t-24 26t-5 35q60 172 91 273t43 154t13 70t1 19l-214 48q-36 42 -36 74zM410 656l426 -82l-272 646zM800 -225q4 75 63 163t197 176l36 -100q-106 -60 -144 -135t-23 -129t74 -66t147 54l24 -122q-52 -60 -119 -71t-125 15t-96 83t-34 132z" />
    <glyph glyph-name="aogonek" unicode="&#x105;" horiz-adv-x="934" 
d="M32 398q-1 14 -1 28q0 77 28 153q33 89 91 164t136 129t164 74q44 10 89 10q42 0 85 -9q88 -19 166 -89q2 -114 4 -208t11 -186t27 -189t52 -217q14 -25 14 -48q0 -14 -5 -27q-13 -35 -38 -51q-16 -10 -34 -10q-10 0 -20 3q-29 9 -39 59l-64 370q-44 -70 -112 -130
t-143 -98t-150 -49q-21 -3 -41 -3q-51 0 -93 20q-59 28 -95 101q-32 66 -32 178v25zM170 420q10 -106 47 -151t88 -45t108 39t105 102t79 142t33 159q0 26 -5 56t-17 56t-31 43t-49 17q-76 0 -141 -39t-113 -101t-76 -136t-28 -142zM568 -225q4 75 63 163t197 176l36 -100
q-106 -60 -144 -135t-23 -129t74 -66t147 54l24 -122q-52 -60 -119 -71t-125 15t-96 83t-34 132z" />
    <glyph glyph-name="Ccaron" unicode="&#x10c;" horiz-adv-x="960" 
d="M52 936q-4 37 -4 73q0 69 15 133q23 98 68 177t107 137t131 89q67 30 133 30h4q68 -1 126 -40t100 -118t56 -207q0 -48 -29 -80q-19 -21 -52 -21q-16 0 -35 5q-8 140 -47 216t-92 98q-25 10 -51 10q-30 0 -62 -13q-60 -25 -111 -87t-85 -156t-36 -206q-2 -50 -2 -97
q0 -203 35 -358q43 -191 133 -292t224 -101t306 118q40 -37 40 -72q0 -7 -1 -13q-9 -41 -55 -76t-120 -61t-156 -42q-30 -4 -58 -4q-74 0 -134 27q-82 37 -141 110t-97 173t-61 211t-34 224t-15 213zM204 1976q-10 26 3 45t35 26t48 3t40 -22l148 -188q16 12 37 34l41 44
q20 22 37 44t23 34q14 24 44 37t59 12t47 -17t6 -52l-188 -220q-18 -48 -46 -65t-58 -11t-61 31t-55 59q-16 16 -39 44l-46 58l-43 58z" />
    <glyph glyph-name="ccaron" unicode="&#x10d;" horiz-adv-x="880" 
d="M29 498q-2 26 -2 51q0 86 24 162q31 99 102 167t187 74q84 -14 150 -59t103 -98q39 -56 39 -106q0 -46 -46 -67q-36 26 -72 59l-70 62q-34 29 -67 47q-26 14 -51 14q-7 0 -14 -1q-32 -5 -65 -39t-65 -110q-26 -82 -26 -152q0 -21 2 -40q10 -86 52 -147t109 -97t145 -43
q19 -2 38 -2q60 0 124 17q84 22 162 76q54 -32 54 -64t-33 -60t-88 -51t-114 -38t-110 -21q-26 -3 -44.5 -3t-30.5 3q-120 10 -204 80t-132 171t-57 215zM154 1530q-10 26 3 45t35 26t48 3t40 -22l148 -188q16 12 37 34l41 44q20 22 37 44t23 34q14 24 44 37t59 12t47 -17
t6 -52l-188 -220q-18 -48 -46 -65t-58 -11t-61 31t-55 59q-16 16 -39 44l-46 58l-43 58z" />
    <glyph glyph-name="Edotaccent" unicode="&#x116;" horiz-adv-x="870" 
d="M55 1110v29q0 85 15 146q18 71 66 111t146 50q108 10 218 15t224 9q54 -12 70 -27t4 -31t-45 -31t-75 -27t-87 -18q-34 -4 -62 -4h-19q-21 -1 -50 -1h-30h-12q-42 0 -81 -6q-45 -7 -81 -31t-44 -76q0 -2 1 -32t2 -76t3 -100t3 -104t2 -92t-1 -60q13 -1 29 -1q28 0 67 4
q60 7 129 18l140 22q71 11 129 17q34 12 56 2t31 -31t4 -45t-25 -42l-550 -90q-14 -44 -29 -102t-24 -120t-9 -125t17 -117t54 -93t101 -53q16 -2 33 -2q35 0 69 9q50 13 96 33l88 40q42 20 80 28q18 4 34 4q19 0 36 -5q32 -9 58 -47q-38 -56 -112 -98t-162 -63
q-80 -19 -164 -19h-16q-92 2 -166 35t-119 98q-40 57 -40 147q0 12 1 24q17 181 17 334v45q-3 171 -10 308t-10 241zM276 1730q0 24 14 51t38 45t54 22t60 -16q36 -16 61 -63t27 -92t-27 -72t-101 -3q-22 0 -44 12t-40 31t-30 41t-12 44z" />
    <glyph glyph-name="edotaccent" unicode="&#x117;" horiz-adv-x="918" 
d="M10 565q6 119 59 217t157 160t264 64q36 0 77 -13t74 -37t55 -58t22 -76q0 -52 -32 -92t-84 -72t-115 -56t-126 -40t-117 -25t-88 -13q10 -120 58 -215t115 -158t143 -88q42 -14 81 -14q31 0 61 9q26 4 66 15t83 21t82 14t62 -4q25 -9 25 -36q0 -25 -30 -70
q-168 -84 -310 -86h-10q-136 0 -242 53q-110 55 -186 153t-113 213q-32 99 -32 201q0 16 1 33zM180 638q30 0 96 13t134 36t120 57t52 76q0 34 -31 52t-61 18q-46 0 -100 -22t-101 -58t-78 -81t-31 -91zM300 1358q0 24 14 51t38 45t54 22t60 -16q36 -16 61 -63t27 -92
t-27 -72t-101 -3q-22 0 -44 12t-40 31t-30 41t-12 44z" />
    <glyph glyph-name="Eogonek" unicode="&#x118;" horiz-adv-x="870" 
d="M55 1110v29q0 85 15 146q18 71 66 111t146 50q108 10 218 15t224 9q54 -12 70 -27t4 -31t-45 -31t-75 -27t-87 -18q-34 -4 -62 -4h-19q-21 -1 -50 -1h-30h-12q-42 0 -81 -6q-45 -7 -81 -31t-44 -76q0 -2 1 -32t2 -76t3 -100t3 -104t2 -92t-1 -60q13 -1 29 -1q28 0 67 4
q60 7 129 18l140 22q71 11 129 17q34 12 56 2t31 -31t4 -45t-25 -42l-550 -90q-14 -44 -29 -102t-24 -120t-9 -125t17 -117t54 -93t101 -53q16 -2 33 -2q35 0 69 9q50 13 96 33l88 40q42 20 80 28q18 4 34 4q19 0 36 -5q32 -9 58 -47q-38 -56 -112 -98t-162 -63
q-80 -19 -164 -19h-16q-92 2 -166 35t-119 98q-40 57 -40 147q0 12 1 24q17 181 17 334v45q-3 171 -10 308t-10 241zM404 -273q4 75 63 163t197 176l36 -100q-106 -60 -144 -135t-23 -129t74 -66t147 54l24 -122q-52 -60 -119 -71t-125 15t-96 83t-34 132z" />
    <glyph glyph-name="eogonek" unicode="&#x119;" horiz-adv-x="918" 
d="M10 565q6 119 59 217t157 160t264 64q36 0 77 -13t74 -37t55 -58t22 -76q0 -52 -32 -92t-84 -72t-115 -56t-126 -40t-117 -25t-88 -13q10 -120 58 -215t115 -158t143 -88q42 -14 81 -14q31 0 61 9q26 4 66 15t83 21t82 14t62 -4q25 -9 25 -36q0 -25 -30 -70
q-168 -84 -310 -86h-10q-136 0 -242 53q-110 55 -186 153t-113 213q-32 99 -32 201q0 16 1 33zM180 638q30 0 96 13t134 36t120 57t52 76q0 34 -31 52t-61 18q-46 0 -100 -22t-101 -58t-78 -81t-31 -91zM548 -239q4 75 63 163t197 176l36 -100q-106 -60 -144 -135t-23 -129
t74 -66t147 54l24 -122q-52 -60 -119 -71t-125 15t-96 83t-34 132z" />
    <glyph glyph-name="Iogonek" unicode="&#x12e;" horiz-adv-x="252" 
d="M45 1145v70q0 68 1 125q28 45 56.5 45t57.5 -45q-3 -78 -3 -155t3 -154q6 -153 17 -305t20 -306t9 -310q0 -34 -12 -52t-30 -21q-4 -1 -8 -1q-14 0 -30 9q-20 11 -36 37q-4 60 -9 152l-11 204q-6 112 -11 235t-9 243t-5 229zM-140 -159q4 75 63 163t197 176l36 -100
q-106 -60 -144 -135t-23 -129t74 -66t147 54l24 -122q-52 -60 -119 -71t-125 15t-96 83t-34 132z" />
    <glyph glyph-name="iogonek" unicode="&#x12f;" horiz-adv-x="352" 
d="M90 1244q0 42 25 58t65 16q36 0 60 -26t24 -60q0 -38 -13 -64t-59 -26t-74 28t-28 74zM136 912q4 14 16 24t27 12h6q12 0 27 -6q18 -8 34 -30q6 -212 9 -433q1 -95 1 -189q0 -126 -2 -250q-12 -16 -32 -29t-38 -17q-6 -1 -11 -1q-11 0 -20 6q-13 9 -9 37zM-80 -207
q4 75 63 163t197 176l36 -100q-106 -60 -144 -135t-23 -129t74 -66t147 54l24 -122q-52 -60 -119 -71t-125 15t-96 83t-34 132z" />
    <glyph glyph-name="dotlessi" unicode="&#x131;" horiz-adv-x="352" 
d="M136 912q4 14 16 24t27 12t33 -6t34 -30q6 -212 9 -433t-1 -439q-12 -16 -32 -29t-38 -17t-31 5t-9 37z" />
    <glyph glyph-name="OE" unicode="&#x152;" horiz-adv-x="1794" 
d="M44 526q0 72 17 164t50 188t79 189t104 165t125 116t143 44q122 -16 215 -89t153 -183q-2 86 5 151t31 110t70 72t122 35q108 10 218 15t224 9q54 -12 70 -27t4 -31t-45 -31t-75 -27t-87 -18t-81 -4q-32 -2 -80 -1t-93 -6t-81 -31t-44 -76q0 -2 1 -32t2 -76t3 -100
t3 -104t2 -92t-1 -60q36 -4 96 3t129 18l140 22q71 11 129 17q34 12 56 2t31 -31t4 -45t-25 -42l-550 -90q-14 -44 -29 -102t-24 -120t-9 -125t17 -117t54 -93t101 -53q52 -6 102 7t96 33l88 40q42 20 80 28t70 -1t58 -47q-38 -56 -112 -97t-162 -62t-179 -19t-165 34
t-119 96t-41 168q-66 -108 -170 -175t-252 -69q-108 0 -195 48t-148 126t-93 177t-32 199zM172 540q-8 -102 21 -189t103 -151t206 -90q122 -30 206 4t135 110t70 184t14 225t-34 233t-76 207t-109 148t-134 57q-32 0 -80 -45t-101 -119t-102 -170t-80 -199t-39 -205z" />
    <glyph glyph-name="oe" unicode="&#x153;" horiz-adv-x="1712" 
d="M38 612q0 88 29 170t82 145t127 101t166 38q72 -2 139 -27t124 -66t104 -96t81 -119q42 116 142 193t268 79q36 0 77 -13t74 -37t55 -58t22 -76q0 -52 -32 -92t-84 -72t-115 -56t-126 -40t-117 -25t-88 -13q10 -120 58 -215t115 -158t143 -88t142 -5q26 4 66 15t83 21
t82 14t62 -4t25 -33t-30 -73q-142 -72 -263 -81t-220 29t-173 113t-122 169q-48 -106 -158 -181t-296 -87q-112 0 -195 63t-138 157t-82 204t-27 204zM172 590q0 -72 13 -154t47 -152t95 -116t157 -46q152 16 238 81t115 154t10 190t-76 187t-144 146t-193 68
q-66 -2 -112 -28t-78 -73t-49 -112t-23 -145zM990 662q30 0 96 13t134 36t120 57t52 76q0 34 -31 52t-61 18q-46 0 -100 -22t-101 -58t-78 -81t-31 -91z" />
    <glyph glyph-name="Scaron" unicode="&#x160;" horiz-adv-x="802" 
d="M32 494q0 52 24 67q19 12 52 12q9 0 18 -1q-1 -11 -1 -22q0 -48 20 -111q25 -77 68 -152t100 -136t115 -86q32 -14 62 -14q25 0 50 10q54 21 92 113q2 23 2 45q0 75 -26 140q-34 85 -90 162t-125 150t-133 150t-112 160t-62 181q2 94 52 152t123 84q59 21 127 21
q16 0 32 -1q86 -6 161 -41t128 -97t61 -150q-4 -76 -35 -102q-10 -8 -21 -8q-22 0 -48 36q3 8 3 17q0 22 -17 51q-24 42 -68 82t-102 69t-113 32h-9q-49 0 -90 -29q-44 -32 -64 -116q6 -60 52 -131t110 -150l137 -164q73 -85 133 -175t97 -184q33 -85 33 -170v-18
q0 -102 -55 -172t-163 -70q-96 0 -189 53t-166 135t-118 182t-45 196zM114 1902q-10 26 3 45t35 26t48 3t40 -22l148 -188q16 12 37 34l41 44q20 22 37 44t23 34q14 24 44 37t59 12t47 -17t6 -52l-188 -220q-18 -48 -46 -65t-58 -11t-61 31t-55 59q-16 16 -39 44l-46 58
l-43 58z" />
    <glyph glyph-name="scaron" unicode="&#x161;" horiz-adv-x="908" 
d="M22 309q24 85 91 149t171 91q45 12 94 12q65 0 138 -21q-90 48 -152 111t-93 129q-28 60 -28 117v11q3 62 42 109t115 74q62 22 151 22q20 0 41 -1q36 0 77 -15t76 -41t57 -60t22 -72q8 -22 -1 -40t-24 -28t-33 -8t-28 20l-23 50q-11 24 -28 42t-45 29t-76 11
q-98 -12 -142 -43t-49 -72q-1 -7 -1 -13q0 -35 22 -76q26 -48 69 -96t96 -92t101 -76l224 36q38 -4 57 -23t24 -41q2 -7 2 -14q0 -15 -8 -28q-11 -20 -33 -22l-204 -24q44 -58 53 -131q2 -15 2 -30q0 -57 -28 -111q-35 -68 -117 -123t-222 -79q-166 8 -259 66t-124 137
q-17 45 -17 91q0 36 10 73zM122 254q12 -88 69 -132t131 -53q21 -3 43 -3q53 0 107 16q76 22 126 66t61 105q2 10 2 20q0 52 -49 111q-24 32 -69 46q-42 13 -92 13h-7q-54 -1 -110 -16t-103 -40t-77 -59t-32 -74zM168 1530q-10 26 3 45t35 26t48 3t40 -22l148 -188
q16 12 37 34l41 44q20 22 37 44t23 34q14 24 44 37t59 12t47 -17t6 -52l-188 -220q-18 -48 -46 -65t-58 -11t-61 31t-55 59q-16 16 -39 44l-46 58l-43 58z" />
    <glyph glyph-name="Umacron" unicode="&#x16a;" horiz-adv-x="904" 
d="M32 1298v8q0 24 17 44t38 29t40 1t23 -40q44 -262 68 -449l40 -313q16 -126 28 -202t29 -118t44 -60t75 -28q98 46 156 127t87 182t33 215q1 30 1 61q0 83 -8 165q-11 112 -32 215t-41 181q-2 4 -2 6v6q0 32 12 52t29 25q5 2 11 2q12 0 26 -8q20 -11 38 -37
q18 -110 42 -234t38 -252q11 -100 11 -198q0 -28 -1 -56q-4 -126 -42 -237t-120 -202t-224 -151q-19 -3 -36 -3q-63 0 -112 45q-62 58 -104 163t-68 241t-41 274t-22 262t-10 207t-7 108t-14 -35q-2 2 -2 4zM144 1621q-26 29 2 111q48 4 119 9t146 9t146 7t123 5
q46 0 73 -24t32 -53t-14 -55t-63 -30q-158 4 -275 -5t-190 -6t-99 32z" />
    <glyph glyph-name="umacron" unicode="&#x16b;" horiz-adv-x="884" 
d="M35 698v11q0 72 12 139q13 72 49 124t110 52q0 -120 -17 -234t-17 -234q-3 -32 -3 -60q0 -80 21 -137q28 -77 77 -114t109 -37t115 35t96 102t51 163q4 -16 1 27t-5 111q-1 27 -1 56q0 43 2 91q3 79 20 137t54 78q11 6 25 6q31 0 76 -32q-4 -136 -13 -266t-13 -259
q-2 -52 -2 -103q0 -77 4 -155q6 -129 32 -263q0 -16 -11 -33t-31 -25q-13 -5 -29 -5q-8 0 -16 1q-25 4 -51 28l-36 336q-90 -124 -195 -164q-51 -20 -99 -20q-51 0 -98 22q-92 42 -153 165t-63 327q0 52 -1 130zM134 1249q-26 29 2 111q48 4 119 9t146 9t146 7t123 5
q46 0 73 -24t32 -53t-14 -55t-63 -30q-158 4 -275 -5t-190 -6t-99 32z" />
    <glyph glyph-name="Uogonek" unicode="&#x172;" horiz-adv-x="904" 
d="M32 1298v8q0 24 17 44t38 29t40 1t23 -40q44 -262 68 -449l40 -313q16 -126 28 -202t29 -118t44 -60t75 -28q98 46 156 127t87 182t33 215q1 30 1 61q0 83 -8 165q-11 112 -32 215t-41 181q-2 4 -2 6v6q0 32 12 52t29 25q5 2 11 2q12 0 26 -8q20 -11 38 -37
q18 -110 42 -234t38 -252q11 -100 11 -198q0 -28 -1 -56q-4 -126 -42 -237t-120 -202t-224 -151q-19 -3 -36 -3q-63 0 -112 45q-62 58 -104 163t-68 241t-41 274t-22 262t-10 207t-7 108t-14 -35q-2 2 -2 4zM388 -53q4 75 63 163t197 176l36 -100q-106 -60 -144 -135
t-23 -129t74 -66t147 54l24 -122q-52 -60 -119 -71t-125 15t-96 83t-34 132z" />
    <glyph glyph-name="uogonek" unicode="&#x173;" horiz-adv-x="884" 
d="M35 698v11q0 72 12 139q13 72 49 124t110 52q0 -120 -17 -234t-17 -234q-3 -32 -3 -60q0 -80 21 -137q28 -77 77 -114t109 -37t115 35t96 102t51 163q4 -16 1 27t-5 111q-1 27 -1 56q0 43 2 91q3 79 20 137t54 78q11 6 25 6q31 0 76 -32q-4 -136 -13 -266t-13 -259
q-2 -52 -2 -103q0 -77 4 -155q6 -129 32 -263q0 -16 -11 -33t-31 -25q-13 -5 -29 -5q-8 0 -16 1q-25 4 -51 28l-36 336q-90 -124 -195 -164q-51 -20 -99 -20q-51 0 -98 22q-92 42 -153 165t-63 327q0 52 -1 130zM452 -305q4 75 63 163t197 176l36 -100q-106 -60 -144 -135
t-23 -129t74 -66t147 54l24 -122q-52 -60 -119 -71t-125 15t-96 83t-34 132z" />
    <glyph glyph-name="Ydieresis" unicode="&#x178;" horiz-adv-x="1130" 
d="M-8 1310l72 110l806 -822l-2 934q64 30 97 36q12 2 21 2q17 0 27 -7q15 -11 17 -33t2 -48l-66 -1244l204 46q22 4 38 -10q17 -15 17 -38q0 -21 -19 -47q-20 -27 -68 -49l-152 -52q-1 -42 -1 -87t1 -94q1 -39 1 -78q0 -58 -2 -117q-3 -98 -12 -190t-31 -167t-62 -126
t-102 -65q-62 -27 -135 -27q-14 0 -28 1q-89 6 -173 41t-154 96t-105 142q-28 66 -28 141q0 17 1 35q8 95 80 200t217 214t383 215l8 196zM298 -523q12 -83 95 -142t261 -73q10 -1 19 -1q53 0 89 30q42 35 66 96t33 143t11 173q1 36 1 73q0 55 -2 112q-3 94 -3 178
q-106 -20 -213 -83t-191 -148t-131 -180q-37 -76 -37 -144q0 -17 2 -34zM218 1744q0 24 14 51t38 45t54 22t60 -16q36 -16 61 -63t27 -92t-27 -72t-101 -3q-22 0 -44 12t-40 31t-30 41t-12 44zM594 1744q0 24 14 51t38 45t54 22t60 -16q36 -16 61 -63t27 -92t-27 -72
t-101 -3q-22 0 -44 12t-40 31t-30 41t-12 44z" />
    <glyph glyph-name="Zcaron" unicode="&#x17d;" horiz-adv-x="990" 
d="M70 92q6 72 48 159t104 180t136 188l145 183l132 165q61 77 95 134t36 89t-46 30q-180 0 -298 3t-188 8t-99 11t-29 12q0 40 28 60t66 20h566q90 -8 120 -45q21 -26 21 -62q0 -16 -4 -34q-13 -59 -62 -138t-115 -169l-143 -188q-77 -98 -148 -198t-126 -196t-79 -182
q52 -5 98 -5t85 5q79 10 154 21t161 15q13 1 27 1q77 0 179 -19q28 -17 28 -42q0 -18 -13 -35q-15 -19 -44 -32t-67 -13q-99 26 -175 26h-11q-80 -2 -156 -16t-156 -31t-184 -21q-50 0 -76 34q-16 21 -16 47q0 17 6 35zM208 1902q-10 26 3 45t35 26t48 3t40 -22l148 -188
q16 12 37 34l41 44q20 22 37 44t23 34q14 24 44 37t59 12t47 -17t6 -52l-188 -220q-18 -48 -46 -65t-58 -11t-61 31t-55 59q-16 16 -39 44l-46 58l-43 58z" />
    <glyph glyph-name="zcaron" unicode="&#x17e;" horiz-adv-x="1032" 
d="M36 960q-4 7 -4 15.5t4 17.5q8 19 40 39q112 44 234 65q95 16 181 16q25 0 49 -1q108 -6 192 -40t124 -96q8 -30 8 -61q0 -42 -15 -85q-25 -74 -76 -149t-121 -151l-143 -150l-141 -147q-68 -73 -114 -143l672 28h7q42 0 54 -23q6 -12 6 -24q0 -14 -8 -28
q-15 -27 -54 -45q-23 -11 -53 -11q-20 0 -42 5h-710q-18 -5 -31 -5q-12 0 -19 4q-16 9 -17 30t10 47t33 50q40 60 96 116l119 115l127 120q64 61 122 129t104 145t72 165q-48 60 -127 73q-45 7 -92 7q-37 0 -76 -4q-89 -10 -177 -29t-156 -21q-28 -4 -49 4t-29 22zM230 1530
q-10 26 3 45t35 26t48 3t40 -22l148 -188q16 12 37 34l41 44q20 22 37 44t23 34q14 24 44 37t59 12t47 -17t6 -52l-188 -220q-18 -48 -46 -65t-58 -11t-61 31t-55 59q-16 16 -39 44l-46 58l-43 58z" />
    <glyph glyph-name="florin" unicode="&#x192;" horiz-adv-x="1000" 
d="M74 -134q8 74 26 101t41 26t48 -23l49 -44q-32 -42 -29 -99t28 -108t66 -87t86 -37t86 42t67 151q10 66 13 162t1 202t-7 211t-11 189t-12 139t-10 61q-58 0 -110 -19t-110 -19q-34 0 -51 15t-21 35t4 39t24 25l274 92q-40 138 -35 247t41 189t98 133t137 79t156 28
t156 -20t137 -66t100 -110q28 -50 12 -86t-82 -28q-42 110 -116 156t-156 42t-160 -50t-129 -121t-62 -171t41 -198l388 24q84 6 112 -36t-22 -104l-486 -26q28 -262 42 -495t1 -415t-63 -304t-148 -164q-78 -24 -153 10t-133 102t-93 156t-35 174z" />
    <glyph glyph-name="circumflex" unicode="&#x2c6;" horiz-adv-x="720" 
d="M78 1326l32 53l43 68l46 67q23 32 39 50q24 38 55 66t61 36t58 -11t46 -75l188 -254q12 -40 -6 -59t-47 -20t-59 14t-44 43q-6 14 -23 38l-37 51q-20 27 -41 51t-37 38l-148 -214q-14 -22 -40 -27t-48 4t-35 30t-3 51z" />
    <glyph glyph-name="caron" unicode="&#x2c7;" horiz-adv-x="720" 
d="M78 1530q-10 26 3 45t35 26t48 3t40 -22l148 -188q16 12 37 34l41 44q20 22 37 44t23 34q14 24 44 37t59 12t47 -17t6 -52l-188 -220q-18 -48 -46 -65t-58 -11t-61 31t-55 59q-16 16 -39 44l-46 58l-43 58z" />
    <glyph glyph-name="breve" unicode="&#x2d8;" horiz-adv-x="672" 
d="M58 1556q12 40 39 60t53 22t42 -15t4 -51q-2 -88 37 -122t88 -27t95 47t60 104q8 32 36 49t56 16t46 -21t10 -60q-32 -102 -91 -159t-128 -80t-139 -13t-122 43t-78 87t-8 120z" />
    <glyph glyph-name="dotaccent" unicode="&#x2d9;" horiz-adv-x="458" 
d="M94 1358q0 24 14 51t38 45t54 22t60 -16q36 -16 61 -63t27 -92t-27 -72t-101 -3q-22 0 -44 12t-40 31t-30 41t-12 44z" />
    <glyph glyph-name="ring" unicode="&#x2da;" horiz-adv-x="818" 
d="M60 1518q6 62 42 100t87 56t108 21t105 -1q70 -8 144 -21t132 -42t91 -82t21 -139q-36 -64 -84 -101t-103 -56t-115 -23t-120 2q-48 4 -104 29t-103 63t-77 88t-24 106zM192 1477q-8 -41 35 -80t145 -51q74 -18 129 -9t86 34t38 60t-15 66t-73 53t-135 24q-94 4 -148 -26
t-62 -71z" />
    <glyph glyph-name="ogonek" unicode="&#x2db;" horiz-adv-x="402" 
d="M-14 -225q4 75 63 163t197 176l36 -100q-106 -60 -144 -135t-23 -129t74 -66t147 54l24 -122q-52 -60 -119 -71t-125 15t-96 83t-34 132z" />
    <glyph glyph-name="tilde" unicode="&#x2dc;" horiz-adv-x="844" 
d="M8 1322q0 50 17 94t42 77t55 52t58 19q66 0 106 -28t73 -61t72 -60t103 -27q40 0 71 23t57 50l50 50q24 23 52 23q36 -36 36 -74t-22 -73t-60 -64t-79 -50t-76 -32t-51 -7q-48 12 -92 49l-87 74q-43 37 -85 65t-82 22q-24 0 -39 -27t-27 -60t-27 -60t-41 -27
q-14 0 -19 16t-5 36z" />
    <glyph glyph-name="hungarumlaut" unicode="&#x2dd;" horiz-adv-x="664" 
d="M38 1314q0 36 21 71t52 67t65 58t58 46q46 2 70 -25t4 -63q-14 -18 -40 -55t-57 -75t-63 -67t-58 -29q-38 0 -45 21t-7 51zM370 1314q0 36 21 71t52 67t65 58t58 46q46 2 70 -25t4 -63q-14 -18 -40 -55t-57 -75t-63 -67t-58 -29q-38 0 -45 21t-7 51z" />
    <glyph glyph-name="uni2000" unicode="&#x2000;" horiz-adv-x="1034" 
 />
    <glyph glyph-name="uni2001" unicode="&#x2001;" horiz-adv-x="2068" 
 />
    <glyph glyph-name="uni2002" unicode="&#x2002;" horiz-adv-x="1034" 
 />
    <glyph glyph-name="uni2003" unicode="&#x2003;" horiz-adv-x="2068" 
 />
    <glyph glyph-name="uni2004" unicode="&#x2004;" horiz-adv-x="688" 
 />
    <glyph glyph-name="uni2005" unicode="&#x2005;" horiz-adv-x="516" 
 />
    <glyph glyph-name="uni2006" unicode="&#x2006;" horiz-adv-x="344" 
 />
    <glyph glyph-name="uni2007" unicode="&#x2007;" horiz-adv-x="344" 
 />
    <glyph glyph-name="uni2008" unicode="&#x2008;" horiz-adv-x="258" 
 />
    <glyph glyph-name="uni2009" unicode="&#x2009;" horiz-adv-x="412" 
 />
    <glyph glyph-name="uni200A" unicode="&#x200a;" horiz-adv-x="114" 
 />
    <glyph glyph-name="uni2010" unicode="&#x2010;" horiz-adv-x="642" 
d="M67 414q-5 30 23 112q196 18 398 24q46 0 73 -24t32 -53t-14 -55t-63 -30q-158 4 -254 -4t-143 -4t-52 34z" />
    <glyph glyph-name="uni2011" unicode="&#x2011;" horiz-adv-x="642" 
d="M67 414q-5 30 23 112q196 18 398 24q46 0 73 -24t32 -53t-14 -55t-63 -30q-158 4 -254 -4t-143 -4t-52 34z" />
    <glyph glyph-name="figuredash" unicode="&#x2012;" horiz-adv-x="642" 
d="M67 414q-5 30 23 112q196 18 398 24q46 0 73 -24t32 -53t-14 -55t-63 -30q-158 4 -254 -4t-143 -4t-52 34z" />
    <glyph glyph-name="endash" unicode="&#x2013;" horiz-adv-x="642" 
d="M57 411q5 33 33 115q48 4 88 5t78 1t78 -1t92 1q46 0 73 -24t32 -53t-14 -55t-63 -30q-158 4 -244 -2t-122 2t-31 41z" />
    <glyph glyph-name="emdash" unicode="&#x2014;" horiz-adv-x="728" 
d="M77 415q-15 29 13 111q48 4 116 6t140 3t140 1t120 2q46 0 65 -21t14 -47t-33 -49t-72 -27q-158 4 -264 -5t-165 -6t-74 32z" />
    <glyph glyph-name="quoteleft" unicode="&#x2018;" horiz-adv-x="458" 
d="M163 1239q5 67 28 124t65 73q24 0 48 -25t24 -59q-50 -66 -50 -123t34 -141q-14 -32 -39 -47t-47 -15q-36 24 -52 85t-11 128z" />
    <glyph glyph-name="quoteright" unicode="&#x2019;" horiz-adv-x="458" 
d="M154 1334q0 60 56 60q50 -14 78 -69t33 -120t-14 -124t-61 -81q-26 0 -39 9t-29 39q8 74 4 145t-28 141z" />
    <glyph glyph-name="quotesinglbase" unicode="&#x201a;" horiz-adv-x="458" 
d="M164 302q0 60 56 60q50 -14 78 -69t33 -120t-14 -124t-61 -81q-26 0 -39 9t-29 39q8 74 4 145t-28 141z" />
    <glyph glyph-name="quotedblleft" unicode="&#x201c;" horiz-adv-x="606" 
d="M148 1344q0 28 2 69t11 78t30 64t61 27q56 0 56 -56q0 -24 -9 -60t-16 -75t-10 -78t9 -69q-34 -46 -59 -47t-41 21t-25 58t-9 68zM352 1286q0 28 2 69t11 78t30 64t61 27q56 0 56 -56q0 -24 -9 -60t-16 -75t-10 -78t9 -69q-34 -46 -59 -47t-41 21t-25 58t-9 68z" />
    <glyph glyph-name="quotedblright" unicode="&#x201d;" horiz-adv-x="606" 
d="M186 1436q0 56 56 56q38 0 60 -27t31 -64t11 -78t2 -69q0 -32 -9 -68t-25 -58t-42 -21t-58 47q12 30 9 69t-10 78t-16 75t-9 60zM390 1494q0 56 56 56q38 0 60 -27t31 -64t11 -78t2 -69q0 -32 -9 -68t-25 -58t-42 -21t-58 47q12 30 9 69t-10 78t-16 75t-9 60z" />
    <glyph glyph-name="quotedblbase" unicode="&#x201e;" horiz-adv-x="606" 
d="M116 140q0 28 2 69t11 78t30 64t61 27q56 0 56 -56q0 -24 -9 -60t-16 -75t-10 -78t9 -69q-34 -46 -59 -47t-41 21t-25 58t-9 68zM320 82q0 28 2 69t11 78t30 64t61 27q56 0 56 -56q0 -24 -9 -60t-16 -75t-10 -78t9 -69q-34 -46 -59 -47t-41 21t-25 58t-9 68z" />
    <glyph glyph-name="ellipsis" unicode="&#x2026;" horiz-adv-x="1746" 
d="M254 130q0 24 14 51t38 45t54 22t60 -16q36 -16 61 -63t27 -92t-27 -72t-101 -3q-22 0 -44 12t-40 31t-30 41t-12 44zM836 130q0 24 14 51t38 45t54 22t60 -16q36 -16 61 -63t27 -92t-27 -72t-101 -3q-22 0 -44 12t-40 31t-30 41t-12 44zM1418 130q0 24 14 51t38 45
t54 22t60 -16q36 -16 61 -63t27 -92t-27 -72t-101 -3q-22 0 -44 12t-40 31t-30 41t-12 44z" />
    <glyph glyph-name="uni202F" unicode="&#x202f;" horiz-adv-x="412" 
 />
    <glyph glyph-name="guilsinglleft" unicode="&#x2039;" horiz-adv-x="680" 
d="M100 600q36 52 87 117l105 130l106 122q52 57 94 93l122 -82q-38 -32 -89 -87l-102 -114l-93 -111q-42 -52 -60 -78q74 -48 122 -72t85 -46t70 -57t75 -103q0 -18 -1 -39t-8 -38t-21 -28t-40 -13q-10 38 -49 69t-92 60l-111 58q-58 29 -105 61t-75 71t-20 87z" />
    <glyph glyph-name="guilsinglright" unicode="&#x203a;" horiz-adv-x="770" 
d="M68 410q14 72 61 109t107 55t124 24t114 16q-32 44 -98 75l-133 60q-67 29 -117 63t-50 82q0 28 18 38t44 10h12l136 -65q64 -31 126 -65t127 -76t141 -98q20 -16 34 -40t14 -46t-16 -38t-54 -16q-110 16 -191 11t-142 -29t-106 -65t-81 -95q-40 16 -55 37t-15 53z" />
    <glyph glyph-name="fraction" unicode="&#x2044;" horiz-adv-x="720" 
d="M23 41q-11 33 31 83l570 1400q40 34 64 43t35 -3t9 -41t-14 -71l-518 -1378q-20 -50 -60 -67t-73 -8t-44 42z" />
    <glyph glyph-name="uni205F" unicode="&#x205f;" horiz-adv-x="516" 
 />
    <glyph glyph-name="Euro" unicode="&#x20ac;" horiz-adv-x="1114" 
d="M54 615q4 21 18 40t36 23l116 -2q-4 28 -5 57t-5 57h-128q-16 0 -22 17t-3 38t15 39t32 20h100v14q-12 108 11 206t68 177t107 137t131 89t137 30t126 -40t100 -118t56 -207q0 -48 -29 -80t-87 -16q-8 140 -47 216t-92 98t-113 -3t-111 -87t-85 -156t-36 -206
q-2 -16 -2 -29v-27q88 -2 164 -3t132 -1t88 -1t34 -3q2 -8 9 -22t10 -29t0 -27t-19 -14l-416 -12q0 -30 2 -58l4 -56l388 12q26 -2 44 -22t23 -45t-7 -47t-46 -24h-14h-59q-47 0 -105 -1l-116 -2q-58 -1 -90 1q28 -154 86 -258t144 -149t197 -25t245 112q48 -44 39 -85
t-55 -76t-120 -61t-156 -42q-118 -16 -204 28t-146 128t-98 197t-58 235q-52 2 -94 4t-62 4q-22 0 -29 17t-3 38z" />
    <glyph glyph-name="trademark" unicode="&#x2122;" horiz-adv-x="2228" 
d="M1072 140q2 44 7 138t12 213t16 250t16 250t12 212t7 137q6 22 26 23t36 1q48 0 92 -45t83 -113t72 -147t59 -148l43 -116q17 -47 25 -49l182 588q49 34 87 34q24 0 44 -13q51 -35 82 -131t50 -236t36 -296t37 -311t56 -279q0 -40 -20 -56q-19 -15 -41 -15h-3
q-24 1 -47 20t-29 53q-26 286 -47 478t-39 311t-34 175t-30 73t-27 5t-25 -30q-66 -178 -102 -325t-57 -246t-33 -140t-30 -5q-36 0 -61 49t-46 124t-41 167t-45 176t-58 150t-79 92l-78 -1084q-12 0 -27 -2t-30 2t-28 18t-23 48zM-7 1322q0 16 8 32q9 18 33 34
q116 26 253 48l285 45q148 23 306 45t318 48q24 -6 43 -21t23 -35q1 -4 1 -8q0 -16 -13 -33q-16 -21 -62 -35l-526 -98l42 -1362q0 -36 -17 -61t-40 -33q-9 -3 -18 -3q-15 0 -30 8q-25 13 -43 53l-42 1400q-50 0 -111 -13t-124 -28t-125 -26q-52 -9 -98 -9h-16q-22 4 -34 17
q-13 15 -13 35z" />
    <glyph glyph-name="notequal" unicode="&#x2260;" horiz-adv-x="1118" 
d="M195 -219q-11 33 31 83l570 1400q40 34 64 43t35 -3t9 -41t-14 -71l-518 -1378q-20 -50 -60 -67t-73 -8t-44 42zM264 417q4 21 18 40t36 23l460 -2q26 -2 44 -22t23 -45t-7 -47t-46 -24h-14q-18 0 -56 2t-85 4t-100 5t-100 5t-85 3t-56 3q-22 0 -29 17t-3 38zM271 647
q3 21 15 39t32 20q174 0 270 -3t143 -6t57 -7t12 -6q2 -8 9 -22t10 -29t0 -27t-19 -14h-504q-16 0 -22 17t-3 38z" />
    <glyph glyph-name="uniE000" unicode="&#xe000;" horiz-adv-x="970" 
d="M0 970h970v-970h-970v970z" />
    <glyph glyph-name="uniFB01" unicode="&#xfb01;" horiz-adv-x="1352" 
d="M20 430q8 74 26 101t41 26t48 -23l49 -44q-22 -42 -22 -100t15 -120t43 -120t62 -102t71 -66q25 -15 48 -15q12 0 23 4q34 11 61 63t41 156q0 32 -1 111t-3 169t-4 170t-2 112q-58 0 -110 -19t-110 -19q-34 0 -51 15t-21 35t4 39t24 25l274 92q-36 123 -36 222q0 12 1 25
q5 109 41 189t98 133t137 79t156 28h13q74 0 143 -20q75 -22 137 -66t100 -110q18 -32 18 -58q0 -15 -6 -28q-13 -29 -60 -29q-10 0 -22 1q-42 110 -116 156q-68 42 -143 42h-13q-82 -4 -160 -50t-129 -121t-62 -171q-2 -17 -2 -34q0 -80 43 -164l388 24q10 1 20 1
q67 0 92 -37q10 -15 10 -33q0 -32 -32 -71l-486 -26q6 -180 11 -314q4 -96 4 -173q0 -31 -1 -59q-2 -98 -13 -165t-35 -114t-64 -77t-100 -56q-100 0 -181 59t-138 148t-88 191t-31 188zM992 1230q0 42 25 58t65 16q36 0 60 -26t24 -60q0 -38 -13 -64t-59 -26t-74 28t-28 74
zM1038 898q4 14 16 24t27 12h6q12 0 27 -6q18 -8 34 -30q6 -212 9 -433q1 -95 1 -189q0 -126 -2 -250q-12 -16 -32 -29t-38 -17q-6 -1 -11 -1q-11 0 -20 6q-13 9 -9 37z" />
    <glyph glyph-name="uniFB02" unicode="&#xfb02;" horiz-adv-x="1802" 
d="M20 430q8 74 26 101t41 26t48 -23l49 -44q-22 -42 -22 -100t15 -120t43 -120t62 -102t71 -66q25 -15 48 -15q12 0 23 4q34 11 61 63t41 156q0 32 -1 111t-3 169t-4 170t-2 112q-58 0 -110 -19t-110 -19q-34 0 -51 15t-21 35t4 39t24 25l274 92q-36 123 -36 222q0 12 1 25
q5 109 41 189t98 133t137 79t156 28h13q74 0 143 -20q75 -22 137 -66t100 -110q18 -32 18 -58q0 -15 -6 -28q-13 -29 -60 -29q-10 0 -22 1q-42 110 -116 156q-68 42 -143 42h-13q-82 -4 -160 -50t-129 -121t-62 -171q-2 -17 -2 -34q0 -80 43 -164l388 24q10 1 20 1
q67 0 92 -37q10 -15 10 -33q0 -32 -32 -71l-486 -26q6 -180 11 -314q4 -96 4 -173q0 -31 -1 -59q-2 -98 -13 -165t-35 -114t-64 -77t-100 -56q-100 0 -181 59t-138 148t-88 191t-31 188zM940 34q104 0 177 38t137 110q0 12 -13 78t-29 166t-31 223t-18 251q-1 26 -1 51
q0 101 10 197q12 120 50 214t107 151t177 57q92 0 143 -56t71 -148q15 -68 15 -151q0 -29 -2 -59q-7 -118 -32 -244t-62 -249t-76 -224t-76 -170t-61 -87q38 -122 83 -197t90 -114t89 -52t81 -14h18q26 0 47 2q28 3 42 -3q22 -10 45 -32t29 -46q1 -5 1 -10q0 -18 -17 -32
q-22 -18 -90 -18q-116 0 -199 28t-143 83t-104 136t-82 189q-52 -54 -91 -89t-79 -56t-88 -30t-114 -9zM1277 866q1 -104 10 -203t20 -174t22 -120q10 -41 14 -41q40 0 106 142q47 102 81 229t51 264q15 123 15 224v24q-2 111 -26 180q-22 63 -64 63h-8q-68 -10 -111 -64
t-68 -136t-34 -183q-8 -91 -8 -184v-21z" />
  </font>
</defs>
</svg>
